<?xml version="1.0"?>
<svg width="480" height="480" xmlns="http://www.w3.org/2000/svg" xmlns:svg="http://www.w3.org/2000/svg" xmlns:xlink="http://www.w3.org/1999/xlink">
 <!-- Created with SVG-edit - https://github.com/SVG-Edit/svgedit-->
 <defs>
  <symbol height="1072.000000pt" id="svg_1" preserveAspectRatio="xMidYMid meet" viewBox="0 0 3072.000000 3072.000000" width="1072.000000pt" xmlns="http://www.w3.org/2000/svg">
   <metadata>Created by potrace 1.10, written by Peter Selinger 2001-2011</metadata>
   <g fill="#000000" transform="translate(0.000000,3072.000000) scale(0.100000,-0.100000)">
    <path d="m0,23965l0,-6755l6743,2l6742,3l3,6753l2,6752l-6745,0l-6745,0l0,-6755zm7052,3790c238,-25 426,-60 646,-121c207,-57 258,-72 299,-90c17,-8 36,-14 42,-14c6,0 19,-4 29,-10c9,-5 45,-21 80,-35c122,-49 306,-138 409,-196c21,-12 56,-32 78,-44c50,-26 338,-218 355,-235c3,-3 37,-30 75,-60c39,-30 72,-57 75,-60c3,-3 25,-23 50,-44c182,-159 364,-345 484,-496c74,-92 182,-237 218,-290c125,-188 300,-521 373,-710c33,-85 43,-115 61,-170c9,-30 22,-71 29,-90c7,-19 20,-64 30,-100c9,-36 22,-87 30,-115c29,-110 56,-256 91,-510c24,-171 25,-639 1,-820c-10,-71 -22,-151 -28,-177c-6,-26 -14,-71 -18,-100c-17,-112 -92,-373 -151,-528c-12,-30 -25,-66 -29,-80c-12,-38 -52,-124 -157,-335c-98,-196 -101,-201 -146,-273c-16,-24 -28,-45 -28,-46c0,-13 -227,-336 -250,-356c-3,-3 -30,-36 -59,-75c-133,-173 -540,-548 -753,-693c-79,-53 -200,-132 -204,-132c-2,0 -26,-14 -54,-30c-142,-84 -274,-150 -405,-204c-49,-21 -103,-44 -120,-51c-16,-8 -42,-17 -58,-21c-15,-3 -30,-10 -33,-15c-3,-5 -14,-9 -24,-9c-11,0 -34,-6 -52,-14c-18,-7 -60,-21 -93,-31c-33,-10 -80,-23 -105,-31c-153,-44 -273,-68 -615,-120c-155,-24 -621,-24 -790,0c-363,51 -501,81 -775,171c-294,96 -602,240 -820,384c-47,30 -93,60 -102,66c-211,126 -575,446 -774,681c-130,152 -305,389 -338,456c-3,7 -15,27 -25,43c-11,17 -31,50 -44,75c-14,25 -34,61 -45,80c-48,82 -190,376 -227,470c-9,25 -23,60 -31,78c-8,18 -14,37 -14,43c0,6 -6,25 -13,42c-16,37 -50,150 -90,297c-89,328 -128,722 -108,1084c14,248 24,315 78,556c28,127 98,360 119,402c8,14 14,35 14,46c0,12 4,23 9,27c5,3 13,20 17,37c3,18 10,39 15,48c5,8 20,44 35,80c27,67 130,279 166,340c11,19 30,53 41,75c12,22 25,42 28,45c3,3 23,34 44,70c211,351 603,783 945,1042c132,100 275,204 290,211c8,4 29,16 45,27c17,11 39,24 50,30c11,6 36,20 55,32c62,37 262,135 355,173c50,20 103,43 118,51c16,8 33,14 39,14c5,0 24,6 41,14c32,15 280,95 372,121c422,117 870,160 1247,120z"/>
    <path d="m6595,27389c-95,-7 -183,-17 -335,-35c-141,-17 -454,-93 -585,-141c-22,-9 -56,-21 -75,-28c-67,-24 -125,-47 -160,-62c-19,-8 -48,-21 -65,-28c-55,-24 -259,-125 -322,-159c-180,-99 -303,-182 -506,-344c-129,-103 -310,-279 -407,-396c-36,-43 -84,-102 -108,-130c-24,-28 -65,-82 -91,-121c-26,-38 -69,-100 -94,-138c-26,-37 -47,-69 -47,-72c0,-3 -17,-33 -38,-67c-97,-159 -232,-427 -232,-461c0,-7 -4,-17 -9,-22c-8,-10 -63,-158 -81,-220c-44,-150 -78,-295 -91,-388c-4,-34 -12,-91 -18,-127c-57,-379 -43,-850 35,-1126c8,-28 14,-59 14,-70c0,-10 6,-36 14,-59c8,-22 22,-69 31,-105c9,-36 22,-76 27,-90c6,-14 14,-38 19,-55c8,-33 34,-108 48,-140c5,-11 16,-40 26,-65c49,-129 148,-325 247,-485c26,-44 54,-89 61,-100c6,-11 24,-36 38,-55c14,-19 47,-66 73,-103c50,-74 79,-110 232,-286c85,-99 179,-190 354,-345c102,-91 352,-264 485,-337c136,-74 293,-151 374,-185c47,-20 94,-40 104,-45c22,-12 181,-67 223,-78c18,-5 37,-11 43,-15c6,-4 32,-11 59,-16c26,-5 76,-17 112,-25c78,-20 124,-29 250,-49c52,-8 124,-20 160,-27c96,-17 590,-24 692,-9c46,6 117,15 158,20c41,5 95,13 120,19c25,5 81,17 125,27c130,27 283,69 333,90c18,8 37,14 43,14c6,0 25,6 42,14c18,7 52,21 77,31c25,9 61,24 80,32c19,8 49,21 65,28c68,28 295,142 363,182c41,24 75,43 77,43c4,0 107,66 120,78c6,4 38,27 73,51c241,163 591,513 757,756c19,28 61,88 94,135c33,47 90,135 126,195c36,61 70,117 76,125c5,8 13,24 18,35c29,66 93,203 102,219c6,11 15,31 19,45c5,14 18,51 30,81c25,65 51,143 75,225c10,33 22,71 26,85c5,14 13,45 19,70c13,62 29,136 41,190c6,25 14,79 20,120c5,41 13,104 19,140c12,82 12,593 0,680c-5,36 -14,95 -19,132c-5,37 -14,89 -19,115c-6,26 -18,84 -27,128c-31,144 -82,316 -135,455c-12,30 -25,67 -30,81c-4,14 -12,34 -17,45c-6,10 -17,35 -25,54c-36,83 -79,176 -88,190c-6,8 -14,24 -19,36c-5,11 -28,51 -50,88c-23,36 -41,68 -41,71c0,9 -128,196 -199,289c-204,272 -464,530 -721,718c-96,70 -268,188 -275,188c-2,0 -33,17 -67,38c-103,63 -454,232 -482,232c-8,0 -17,4 -21,9c-3,5 -20,13 -38,17c-17,3 -45,12 -62,19c-30,13 -83,29 -185,58c-110,31 -146,40 -190,48c-25,4 -65,12 -90,17c-225,48 -536,69 -755,51zm250,-418l70,-6l6,-300c5,-278 15,-401 40,-515c21,-93 26,-116 36,-140c6,-14 21,-58 33,-98c12,-40 26,-75 31,-78c5,-3 9,-12 9,-21c0,-8 7,-31 16,-51c23,-51 142,-293 157,-317c6,-11 25,-42 41,-70c97,-162 329,-425 497,-562c72,-59 216,-163 225,-163c3,0 20,-11 37,-24c18,-14 43,-30 57,-36c14,-6 52,-26 85,-44c71,-40 162,-86 303,-152c56,-27 102,-54 102,-60c0,-6 -24,-17 -52,-23c-148,-33 -161,-38 -395,-148l-52,-24l-68,37c-37,21 -81,46 -98,56c-16,10 -39,22 -50,28c-22,11 -130,82 -222,145c-324,223 -637,588 -807,940c-51,106 -70,149 -80,178c-8,26 -35,20 -48,-10c-54,-136 -163,-351 -223,-443c-105,-160 -251,-331 -408,-477c-151,-141 -215,-186 -472,-340c-11,-7 -29,-16 -40,-22c-11,-5 -53,-28 -94,-50c-41,-23 -80,-41 -88,-41c-9,0 -34,12 -57,28c-66,44 -162,92 -184,92c-12,0 -23,4 -27,9c-3,5 -20,12 -38,16c-54,11 -117,37 -117,49c0,6 60,40 133,75c112,55 165,84 316,176c235,142 531,409 666,599c11,15 34,47 51,70c33,44 80,115 102,156c23,40 98,192 115,230c9,19 25,56 36,82c12,26 21,53 21,60c0,8 4,18 8,23c15,17 66,189 95,320c25,114 36,253 42,550c4,154 9,283 13,287c18,17 143,21 277,9zm564,-86c25,-8 75,-21 111,-30c114,-29 259,-73 317,-96c135,-55 367,-172 404,-205c8,-8 18,-14 22,-14c8,0 263,-174 277,-190c3,-3 39,-32 80,-65c81,-64 379,-359 446,-440c60,-75 164,-213 164,-219c0,-3 19,-34 43,-69c24,-34 46,-69 50,-77c4,-8 19,-35 33,-60c57,-98 171,-335 218,-450c15,-36 31,-74 36,-85c5,-11 18,-49 30,-85c11,-36 24,-74 29,-85c34,-81 51,-188 31,-200c-15,-9 -358,13 -480,31c-293,43 -558,139 -785,285c-16,10 -37,22 -45,26c-50,23 -297,230 -380,319c-165,178 -232,271 -340,469c-64,117 -150,305 -150,328c0,5 -6,23 -13,40c-66,155 -140,491 -169,760c-14,135 -12,138 71,112zm-1260,-9c9,-11 9,-36 1,-103c-21,-178 -54,-371 -85,-488c-31,-122 -48,-183 -61,-217c-8,-21 -20,-55 -28,-75c-51,-137 -181,-409 -212,-444c-8,-8 -14,-18 -14,-22c0,-9 -92,-141 -135,-193c-195,-234 -388,-402 -600,-522c-60,-33 -254,-127 -305,-147c-25,-9 -56,-22 -70,-27c-49,-20 -190,-57 -315,-83c-38,-8 -144,-21 -235,-29c-91,-8 -197,-18 -236,-22c-49,-4 -78,-3 -93,6c-26,13 -25,28 4,127c9,29 22,74 30,100c23,80 70,211 110,308c26,63 131,266 166,320c10,17 22,37 26,46c5,9 33,56 63,104c227,359 568,710 910,936c134,89 350,206 475,259c28,11 58,25 67,30c10,6 23,10 29,10c6,0 25,6 42,13c50,21 99,38 137,48c19,4 69,18 110,29c77,22 176,46 196,49c6,0 17,-5 23,-13zm-1671,-2811c210,-25 460,-79 560,-121c18,-8 40,-14 50,-14c9,0 26,-7 36,-15c11,-8 28,-15 37,-15c10,0 30,-6 46,-14c15,-8 39,-19 53,-24c46,-18 315,-152 345,-172c17,-11 37,-23 45,-27c19,-9 171,-115 225,-157c209,-161 440,-397 555,-566c8,-12 26,-39 40,-59c76,-107 186,-309 239,-436c18,-44 39,-93 46,-110c36,-82 94,-279 119,-410c38,-196 46,-307 46,-622l0,-312l-37,-7c-41,-8 -297,1 -313,11c-6,4 -10,62 -10,153c-1,81 -5,192 -10,247c-21,229 -29,292 -38,335c-5,25 -18,81 -27,125c-19,90 -41,164 -61,213c-8,18 -14,41 -14,50c0,10 -7,27 -15,38c-8,10 -15,25 -15,33c0,12 -143,305 -173,356c-126,208 -329,445 -502,584c-38,31 -72,59 -75,62c-8,9 -193,134 -210,142c-8,4 -31,17 -50,28c-93,57 -270,138 -420,194c-19,7 -53,19 -75,28c-59,22 -149,47 -169,47c-9,0 -38,6 -64,14c-154,45 -481,70 -728,54c-191,-12 -219,-9 -228,24c-8,31 -8,343 1,351c14,14 660,7 791,-8zm5281,6c10,-7 13,-47 13,-191c0,-100 -2,-184 -5,-186c-2,-3 -172,-6 -378,-7c-249,-2 -394,-7 -434,-16c-33,-7 -94,-19 -135,-27c-105,-21 -343,-92 -420,-125c-14,-6 -38,-17 -55,-24c-79,-32 -230,-111 -290,-151c-38,-24 -70,-44 -72,-44c-18,0 -230,-178 -329,-275c-210,-207 -434,-495 -513,-658c-25,-52 -36,-53 -47,-5c-3,18 -10,39 -14,48c-5,8 -18,40 -30,70c-28,68 -77,144 -124,189c-20,19 -36,39 -36,43c0,5 33,53 73,106c40,53 88,120 106,147c114,171 339,410 521,552c65,50 198,143 205,143c2,0 21,12 42,26c21,14 47,30 58,35c11,5 36,19 55,30c47,29 113,62 185,94c33,14 74,32 90,39c17,8 55,24 85,35c30,12 64,26 75,30c55,22 219,66 320,85c187,35 309,44 675,45c201,0 371,-3 379,-8zm-5488,-821c184,-17 396,-63 529,-114c101,-39 200,-83 240,-106c25,-15 52,-29 60,-33c100,-49 321,-219 439,-337c199,-200 346,-426 471,-725c20,-47 63,-211 84,-315c32,-166 58,-532 38,-552c-26,-26 -422,82 -544,148c-14,8 -32,14 -39,14c-13,0 -242,112 -319,157c-45,26 -187,118 -250,164c-304,216 -623,558 -817,876c-123,202 -270,518 -349,749c-28,85 -31,84 175,84c98,0 225,-4 282,-10zm5387,-6c26,-7 29,-37 8,-86c-8,-18 -24,-58 -36,-88c-72,-178 -185,-400 -314,-613c-39,-65 -75,-126 -81,-135c-19,-32 -109,-157 -150,-207c-173,-214 -403,-439 -575,-561c-30,-21 -57,-41 -60,-44c-10,-11 -117,-80 -155,-100c-11,-6 -40,-22 -65,-36c-74,-43 -250,-130 -320,-159c-36,-14 -74,-30 -85,-34c-63,-27 -285,-90 -392,-111c-96,-19 -93,-24 -93,152c-1,293 42,514 150,783c152,378 438,717 810,961c63,41 246,130 345,167c144,55 364,104 495,110c113,6 496,7 518,1z"/>
    <path d="m7720,26469c0,-6 9,-34 21,-62c12,-29 28,-70 36,-92c8,-22 21,-55 29,-73c8,-18 14,-37 14,-43c0,-6 6,-25 14,-42c7,-18 21,-54 31,-82c25,-69 100,-226 151,-311c100,-170 260,-359 404,-475c212,-172 558,-319 813,-345c58,-5 67,-4 67,10c0,19 -93,213 -145,301c-19,33 -39,69 -45,80c-12,24 -17,32 -99,160c-72,112 -176,246 -272,349c-216,233 -581,479 -879,591c-25,10 -57,23 -72,31c-31,17 -68,18 -68,3z"/>
    <path d="m5700,26464c-14,-8 -65,-32 -115,-55c-135,-61 -254,-122 -327,-167c-127,-79 -163,-103 -233,-156c-129,-97 -232,-194 -351,-331c-38,-44 -71,-82 -75,-85c-12,-11 -119,-160 -170,-235c-70,-105 -78,-117 -86,-135c-4,-8 -33,-59 -65,-113c-32,-54 -58,-101 -58,-103c0,-3 -13,-32 -29,-64c-21,-43 -26,-62 -18,-67c24,-14 176,-1 264,23c171,48 217,64 235,82c7,7 18,12 25,12c19,0 175,84 229,122c127,92 247,193 316,268c68,72 159,194 181,240c4,8 21,38 37,65c59,99 170,333 170,358c0,9 4,18 9,22c5,3 13,20 17,38c3,17 13,45 20,62c28,63 84,213 84,224c0,15 -29,12 -60,-5z"/>
    <path d="m4250,22861c0,-11 4,-22 9,-25c5,-3 28,-43 51,-88c137,-272 210,-388 364,-577c11,-14 73,-78 136,-141c140,-140 272,-241 458,-351c35,-20 169,-88 207,-104c17,-7 46,-20 65,-28c19,-8 54,-22 78,-31c23,-9 60,-23 81,-32c50,-21 63,-13 55,34c-19,115 -78,278 -159,442c-107,217 -266,416 -436,546c-35,26 -66,51 -69,54c-9,11 -145,97 -202,128c-71,38 -217,102 -234,102c-8,0 -28,6 -46,14c-18,8 -58,21 -88,29c-30,9 -80,23 -111,31c-31,9 -79,16 -107,16c-45,0 -52,-3 -52,-19z"/>
    <path d="m9055,22863c-92,-22 -166,-44 -210,-60c-22,-8 -58,-22 -80,-30c-137,-51 -328,-165 -453,-270c-261,-219 -470,-537 -551,-838c-5,-16 -13,-41 -18,-55c-6,-14 -18,-49 -28,-78c-23,-70 -13,-80 51,-54c27,11 83,30 124,42c324,98 713,398 993,765c42,55 81,112 118,170c67,107 67,107 89,155c11,25 24,52 29,60c18,29 101,195 101,203c0,12 -101,6 -165,-10z"/>
   </g>
  </symbol>
 </defs>
 <g class="layer">
  <title>Layer 1</title>
  <use id="svg_2" transform="matrix(0.712685 0 0 0.712685 12.6835 12.6836)" x="7.015723" xlink:href="#svg_1" y="5.612578"/>
  <g id="svg_3"/>
 </g>
</svg>