<?xml version="1.0" encoding="UTF-8"?>
<svg version="1.1" xmlns="http://www.w3.org/2000/svg" width="1024" height="1024">
<path d="M0 0 C0.72960937 -0.02191406 1.45921875 -0.04382813 2.2109375 -0.06640625 C6.77314868 1.12213097 9.56405213 3.82259998 11.95605469 7.74536133 C13.31002559 10.38560458 14.57081607 13.05516833 15.8125 15.75 C26.28310714 37.51155844 39.6096201 57.4876537 55.625 75.5625 C56.38425781 76.42101562 57.14351562 77.27953125 57.92578125 78.1640625 C59.34653484 79.75389334 60.77435232 81.33745232 62.21061707 82.9132843 C63.79083159 84.64719695 65.3659293 86.38579012 66.93525696 88.12956238 C74.65504669 96.65298348 82.71837211 104.80225074 90.85546875 112.92578125 C92.30046382 114.37145196 93.74531058 115.81727091 95.1900177 117.26322937 C98.19626742 120.27094194 101.20428896 123.27686769 104.21362305 126.28149414 C108.05317152 130.11532551 111.88818385 133.95365819 115.72188854 137.7933321 C118.6961903 140.77126026 121.67288545 143.74678685 124.65029335 146.72160912 C126.06508891 148.13574223 127.47915488 149.55060569 128.89244652 150.96624184 C138.27023966 160.43109407 138.27023966 160.43109407 148.2011261 169.30387878 C150.29375369 171.15363913 151.88291434 173.38489293 153.625 175.5625 C154.80476236 176.62184088 156.00311972 177.66060947 157.21289062 178.68554688 C161.75867274 182.62249604 165.99180883 186.81959581 170.21875 191.09375 C171.00971069 191.88849731 171.80067139 192.68324463 172.61560059 193.5020752 C175.96518573 196.86785548 179.3087327 200.23961048 182.65283203 203.61083984 C185.11020939 206.08640227 187.57066058 208.55888083 190.03125 211.03125 C190.77419312 211.78249146 191.51713623 212.53373291 192.28259277 213.30773926 C192.99693481 214.02538452 193.71127686 214.74302979 194.44726562 215.48242188 C195.06267212 216.10306519 195.67807861 216.7237085 196.31213379 217.36315918 C198.2831516 219.23743099 200.29311492 221.0148577 202.35237122 222.78987122 C206.81730716 226.67520604 210.99543402 230.80651312 215.16479492 235.00463867 C216.38344994 236.22548409 216.38344994 236.22548409 217.62672424 237.47099304 C219.37709416 239.22514667 221.12630867 240.98045385 222.87447166 242.73680687 C225.64230012 245.51747093 228.41330356 248.29493592 231.18513489 251.0716095 C237.06391178 256.96142871 242.93842211 262.85549491 248.8125 268.75 C255.63209114 275.59327595 262.45336591 282.43485673 269.27883339 289.27227211 C272.00680649 292.00672065 274.73174753 294.74416632 277.45658875 297.48173523 C279.1287073 299.15748624 280.80096637 300.83309705 282.47338867 302.50854492 C283.22830597 303.26862854 283.98322327 304.02871216 284.76101685 304.81182861 C287.63676134 307.68786186 290.43963804 310.41600946 293.63447571 312.94087219 C294.61978523 313.74357796 294.61978523 313.74357796 295.625 314.5625 C295.625 315.2225 295.625 315.8825 295.625 316.5625 C296.22441406 316.82289063 296.82382812 317.08328125 297.44140625 317.3515625 C299.77438374 318.64534251 300.92277781 319.85718764 302.5625 321.9375 C304.99601969 324.91592995 307.60945935 327.16780595 310.625 329.5625 C310.625 330.2225 310.625 330.8825 310.625 331.5625 C311.615 331.8925 312.605 332.2225 313.625 332.5625 C313.625 333.2225 313.625 333.8825 313.625 334.5625 C314.21796875 334.81644531 314.8109375 335.07039063 315.421875 335.33203125 C317.86897699 336.69876374 319.11847954 338.07992982 320.875 340.25 C323.06408199 342.95384137 325.37316906 345.24317136 328.015625 347.48828125 C335.03737357 353.53874734 341.41294335 360.29676654 347.92529297 366.88330078 C354.31386813 373.33811492 360.67814525 379.7014114 367.625 385.5625 C369.05392578 386.84833984 369.05392578 386.84833984 370.51171875 388.16015625 C378.65943511 395.33060119 387.42331442 401.28587626 396.51171875 407.203125 C400.10426784 409.54967529 403.67083051 411.92859049 407.20703125 414.359375 C408.03050049 414.92495117 408.85396973 415.49052734 409.70239258 416.07324219 C411.625 417.5625 411.625 417.5625 412.625 419.5625 C412.98768495 423.40696042 413.17313276 425.72354864 411.02734375 429.0078125 C408.27006213 431.93994612 405.25772482 434.00398052 401.875 436.125 C393.48948864 441.55158832 385.5217968 447.45136746 377.625 453.5625 C376.67109375 454.29984375 375.7171875 455.0371875 374.734375 455.796875 C362.84195477 465.26808392 352.03279804 476.05901152 341.35229492 486.85424805 C338.52526165 489.70162847 335.68853133 492.46628701 332.625 495.0625 C328.74839051 498.35301302 325.16152251 501.91228332 321.5625 505.5 C320.98435547 506.07363281 320.40621094 506.64726563 319.81054688 507.23828125 C316.90488087 510.1538417 314.11380967 513.12157953 311.43785095 516.24986267 C307.52356922 520.74076846 303.37132899 524.95684015 299.15454102 529.16235352 C298.33731567 529.98133118 297.52009033 530.80030884 296.67810059 531.644104 C293.99753185 534.32904517 291.31335579 537.0103456 288.62890625 539.69140625 C286.75220872 541.56877814 284.87565943 543.44629729 282.99925232 545.32395935 C279.07478249 549.25024185 275.14822429 553.17442653 271.22045898 557.09741211 C266.69757116 561.61485906 262.1782967 566.13589682 257.66088158 570.65881592 C253.76271059 574.56154384 249.86257059 578.46229601 245.9608168 582.36144203 C243.63902431 584.68168589 241.31808911 587.00277427 238.99853706 589.32525826 C236.40972882 591.91662072 233.81771118 594.50473114 231.22485352 597.09204102 C230.09227364 598.22765724 230.09227364 598.22765724 228.93681335 599.38621521 C224.88406775 603.42300176 220.73086964 607.26771019 216.40087318 611.00479603 C214.02787454 613.08626752 211.82937037 615.30348168 209.625 617.5625 C208.26694599 618.92540512 206.90741259 620.28683672 205.54692078 621.64730835 C203.91368001 623.28358358 202.28044579 624.91986536 200.6472168 626.55615234 C191.5176004 635.70215474 182.38541992 644.84559265 173.25175762 653.98755455 C167.72905747 659.51540971 162.20730299 665.04420342 156.68774414 670.57519531 C151.85852706 675.41440998 147.02752765 680.25183715 142.19442111 685.08716738 C139.64206403 687.64082147 137.090577 690.19533074 134.54123497 692.75199509 C131.69389996 695.60744389 128.84259287 698.45889509 125.9909668 701.31005859 C125.15796555 702.14665512 124.32496429 702.98325165 123.46672058 703.84519958 C119.22833844 708.07617178 114.91078997 712.13648547 110.37173367 716.04301071 C108.11910858 718.00257659 105.99261851 720.06780457 103.88061523 722.17749023 C103.04292099 723.01203232 102.20522675 723.8465744 101.34214783 724.70640564 C100.46482498 725.58575272 99.58750214 726.46509979 98.68359375 727.37109375 C97.75708511 728.29664566 96.83057648 729.22219757 95.87599182 730.17579651 C93.92717639 732.12314855 91.98015263 734.07226913 90.03442383 736.02270508 C87.56136139 738.50146395 85.08383467 740.97570431 82.60493374 743.4486227 C80.21203799 745.83700145 77.82299682 748.2292208 75.43359375 750.62109375 C74.55424667 751.4984166 73.6748996 752.37573944 72.76890564 753.27964783 C68.38221357 757.68290893 64.12960478 762.14144089 60.08988953 766.86636353 C58.69205657 768.48485791 57.25123645 770.04441856 55.7734375 771.58984375 C37.91227803 790.26967951 24.36822183 811.70111592 12.6484375 834.65625 C7.62948117 844.44902383 7.62948117 844.44902383 3.625 846.5625 C0.1875 847.0625 0.1875 847.0625 -3.375 846.5625 C-8.56602388 842.47900727 -10.79932918 837.1297588 -13.5625 831.25 C-30.5932118 796.19473412 -56.8765982 768.88558066 -84.1953125 741.609375 C-85.75387855 740.05013295 -87.31229633 738.49074268 -88.87057495 736.93121338 C-92.10090212 733.69942799 -95.33299026 730.46941757 -98.56640625 727.24072266 C-102.70433783 723.10854034 -106.83769105 718.97181177 -110.96977425 714.8337822 C-114.1712799 711.62866471 -117.37516103 708.42593036 -120.57976913 705.2239151 C-122.10589782 703.69845124 -123.63129026 702.17225043 -125.15591812 700.64528656 C-127.27747746 698.52118472 -129.40222016 696.40031883 -131.52783203 694.28027344 C-132.4613726 693.34369652 -132.4613726 693.34369652 -133.41377258 692.38819885 C-136.59411388 689.2232506 -139.82724651 686.32188046 -143.375 683.5625 C-144.40862279 682.42551493 -145.40999141 681.25827152 -146.375 680.0625 C-149.27269714 676.66937714 -152.36734167 673.69327063 -155.6875 670.71484375 C-165.74393674 661.55597387 -175.24209693 651.80656981 -184.83648682 642.16967773 C-187.41387125 639.58196618 -189.99416976 636.99716378 -192.57421875 634.41210938 C-196.3453035 630.63313764 -200.11487084 626.852663 -203.8828125 623.07055664 C-204.67453857 622.27618698 -205.46626465 621.48181732 -206.28198242 620.66337585 C-207.51997093 619.42073929 -208.75736026 618.17750449 -209.9934082 616.93293762 C-213.50827889 613.3995938 -217.19163773 610.06730578 -220.9140625 606.75585938 C-223.47069236 604.44505931 -225.81211115 602.11745652 -227.98828125 599.44140625 C-230.60774912 596.28175351 -233.43860366 593.85294903 -236.60546875 591.2734375 C-238.46258164 589.47781841 -239.27025089 587.86848286 -240.375 585.5625 C-242.4085948 584.29445434 -242.4085948 584.29445434 -244.375 583.5625 C-244.375 582.9025 -244.375 582.2425 -244.375 581.5625 C-245.365 581.2325 -246.355 580.9025 -247.375 580.5625 C-249.06588222 578.58293058 -250.73330472 576.58304804 -252.375 574.5625 C-253.035 574.2325 -253.695 573.9025 -254.375 573.5625 C-254.375 572.9025 -254.375 572.2425 -254.375 571.5625 C-255.035 571.5625 -255.695 571.5625 -256.375 571.5625 C-256.375 570.9025 -256.375 570.2425 -256.375 569.5625 C-257.035 569.5625 -257.695 569.5625 -258.375 569.5625 C-259.62727484 568.08545788 -260.87666522 566.60422601 -262.05859375 565.0703125 C-263.49264091 563.29487056 -263.49264091 563.29487056 -266.375 561.5625 C-266.375 560.9025 -266.375 560.2425 -266.375 559.5625 C-267.035 559.5625 -267.695 559.5625 -268.375 559.5625 C-269.66993713 558.24508667 -269.66993713 558.24508667 -271.23266602 556.33154297 C-275.84192347 550.91622744 -280.88071383 545.95994837 -285.93049431 540.96240616 C-287.68552262 539.22496613 -289.43681361 537.48383565 -291.18714905 535.7416687 C-296.15799383 530.79512553 -301.13467364 525.85448203 -306.11547852 520.91796875 C-309.17516337 517.88498414 -312.23002543 514.84721172 -315.28192329 511.80639267 C-316.4439091 510.65062501 -317.60779015 509.49675961 -318.77357292 508.34482193 C-320.39385963 506.74364006 -322.00799512 505.13649491 -323.62084961 503.52783203 C-325.00148842 502.15837936 -325.00148842 502.15837936 -326.41001892 500.76126099 C-328.375 498.5625 -328.375 498.5625 -328.375 496.5625 C-328.91310303 496.35181885 -329.45120605 496.1411377 -330.00561523 495.92407227 C-333.27181013 494.04714605 -335.68446539 491.45864661 -338.28515625 488.77734375 C-338.85270126 488.20222549 -339.42024628 487.62710724 -340.00498962 487.03456116 C-342.42079594 484.58632152 -344.82485055 482.12667386 -347.22924805 479.66723633 C-354.61282149 472.1294368 -362.0709017 465.09986685 -370.375 458.5625 C-372.18170617 457.04642647 -373.98768686 455.52948799 -375.79296875 454.01171875 C-382.45148973 448.56254706 -389.62689309 443.98771623 -396.85351562 439.33789062 C-410.71576698 430.28732982 -410.71576698 430.28732982 -412.3125 423.6875 C-411.97275711 419.95032817 -410.50932539 418.22088142 -407.8125 415.6875 C-403.15271524 411.9421157 -398.17042897 408.67722083 -393.16992188 405.41015625 C-365.23363148 387.1195303 -342.02239531 362.35948872 -318.58272934 338.83869171 C-315.26148872 335.50733607 -311.9368902 332.17933514 -308.61254883 328.85107422 C-300.19702691 320.42454742 -291.78579665 311.99374285 -283.375 303.5625 C-274.26213789 294.42753793 -265.14849178 285.29336531 -256.02997017 276.16405201 C-252.08932443 272.2184522 -248.15112193 268.27043532 -244.21483517 264.32048702 C-241.76538977 261.86354876 -239.31384403 259.40871433 -236.86174202 256.95442772 C-235.73218078 255.82300555 -234.60347864 254.69072488 -233.47573662 253.5574894 C-228.13164644 248.18820081 -222.7683012 242.89911603 -217.00880051 237.97143364 C-214.94629103 236.19279606 -213.01494317 234.30915064 -211.10205078 232.37133789 C-210.00148849 231.26097923 -210.00148849 231.26097923 -208.87869263 230.12818909 C-208.11692719 229.35498825 -207.35516174 228.58178741 -206.5703125 227.78515625 C-204.91939971 226.12161688 -203.2683543 224.45820912 -201.6171875 222.79492188 C-199.04107372 220.19383808 -196.46659838 217.59116959 -193.89453125 214.98608398 C-191.39492967 212.45646639 -188.88929813 209.93295016 -186.3828125 207.41015625 C-185.60890167 206.6227858 -184.83499084 205.83541534 -184.03762817 205.02418518 C-182.96543533 203.94692421 -182.96543533 203.94692421 -181.87158203 202.84790039 C-181.24285187 202.2117128 -180.6141217 201.57552521 -179.96633911 200.9200592 C-178.375 199.5625 -178.375 199.5625 -176.375 199.5625 C-176.375 198.9025 -176.375 198.2425 -176.375 197.5625 C-174.98864746 196.1973877 -174.98864746 196.1973877 -173.02148438 194.58007812 C-167.74280949 190.08767509 -162.90800935 185.20209643 -158.03125 180.28125 C-157.05323581 179.29881622 -156.07491749 178.31668512 -155.09631348 177.33483887 C-152.01968605 174.24689429 -148.94703564 171.15501186 -145.875 168.0625 C-142.30946097 164.47319537 -138.74222072 160.88561492 -135.17070007 157.30226135 C-133.75741371 155.88258843 -132.34722889 154.45983001 -130.93713379 153.0369873 C-127.20270133 149.28844902 -123.47879734 145.58574348 -119.45922852 142.14233398 C-113.92214781 137.38860485 -108.83491774 132.16634252 -103.68359375 127.00390625 C-102.56850989 125.88949782 -101.45327778 124.77523771 -100.33790588 123.66111755 C-98.01246238 121.33713979 -95.68881489 119.01138536 -93.36645508 116.68432617 C-90.40912097 113.72129549 -87.44731872 110.7627783 -84.48414516 107.80558872 C-82.18389402 105.50897368 -79.88605769 103.20995434 -77.58891487 100.91023064 C-76.49854703 99.81920194 -75.4074532 98.72889823 -74.31558037 97.63937569 C-68.45636431 91.79001032 -62.7128737 85.89729644 -57.375 79.5625 C-56.54355469 78.58925781 -55.71210938 77.61601562 -54.85546875 76.61328125 C-48.82512625 69.41179898 -43.01385905 62.07457458 -37.375 54.5625 C-36.50294922 53.42167969 -36.50294922 53.42167969 -35.61328125 52.2578125 C-26.18354606 39.42606631 -18.79904755 24.80599527 -11.67260742 10.60375977 C-6.24627529 -0.01095838 -6.24627529 -0.01095838 0 0 Z " fill="#EBEBEB" transform="translate(515.375,96.4375)"/>
<path d="M0 0 C1.07378906 -0.020625 2.14757812 -0.04125 3.25390625 -0.0625 C20.90651369 -0.14747043 37.57606756 6.12540345 50.3125 18.49609375 C50.869375 19.07488281 51.42625 19.65367187 52 20.25 C48.86372712 27.39373266 41.91881901 32.43040344 36.109375 37.41796875 C33.82370454 39.40311587 31.60298622 41.4503983 29.375 43.5 C24.87283899 47.56780244 20.1764546 51.30862089 15.38427734 55.02246094 C11.33606043 58.16973937 7.39301416 61.41313072 3.5 64.75 C-1.42123698 68.96138583 -6.44797675 73.00563962 -11.55859375 76.984375 C-16.08704234 80.51536796 -20.55208041 84.11822716 -25 87.75 C-37.62454178 98.04593428 -50.50377305 108.00908683 -63.45703125 117.88671875 C-65.679826 119.58215072 -67.89266728 121.28929837 -70.09765625 123.0078125 C-71.83123304 124.3470764 -73.5835334 125.66337621 -75.37109375 126.9296875 C-78.6570331 129.37596026 -79.94123034 131.0644116 -81.1875 135 C-80.74523622 139.33254699 -78.27532888 141.20703799 -75.0625 143.9375 C-73.36875729 145.26042942 -71.65551151 146.55014642 -69.92578125 147.82568359 C-67.88778341 149.33299589 -65.88000647 150.87488821 -63.875 152.42578125 C-58.99998708 156.18952482 -54.09281551 159.91025393 -49.18115234 163.62597656 C-42.58192993 168.62418177 -36.14907252 173.76398964 -29.86523438 179.15161133 C-25.73948495 182.67146851 -21.48599786 185.98935349 -17.1628418 189.26513672 C-10.9475679 194.00243908 -4.95847492 199.01141878 1.05859375 203.99609375 C4.09600766 206.51088007 7.15842322 208.98937335 10.25 211.4375 C14.61200608 214.90340636 18.86122785 218.49195958 23.10107422 222.10522461 C26.64991707 225.12514834 30.24518862 228.07723007 33.875 231 C37.62777025 234.05458043 41.14822846 237.19833234 44.49609375 240.69140625 C45.91828737 242.165316 47.42634111 243.55495038 48.9375 244.9375 C51 247.25 51 247.25 51 251.25 C43.02574394 261.79373857 27.50899689 267.79283649 14.93359375 269.85546875 C8.2567865 270.52513859 1.66849384 270.64968258 -5.03222656 270.33154297 C-6.72583055 270.26136136 -8.42223779 270.26604028 -10.1171875 270.28515625 C-12.99653951 270.10574374 -14.57454636 269.82631029 -17 268.25 C-19.12509127 265.07849719 -20.671298 261.77022674 -22.18359375 258.28125 C-30.94738699 238.13280707 -46.28386876 219.33201329 -61 203.25 C-61.52899902 202.66605469 -62.05799805 202.08210937 -62.60302734 201.48046875 C-76.18613411 186.13600488 -76.18613411 186.13600488 -92 173.25 C-92 172.59 -92 171.93 -92 171.25 C-92.83917969 170.88068359 -92.83917969 170.88068359 -93.6953125 170.50390625 C-96.41869167 169.02220334 -98.52585353 167.21176451 -100.875 165.1875 C-115.90014523 152.73638364 -133.54683154 143.77258615 -151 135.25 C-148.68640938 132.66455311 -146.39946675 131.29107061 -143.28125 129.796875 C-142.3540918 129.34602539 -141.42693359 128.89517578 -140.47167969 128.43066406 C-139.00069824 127.72248535 -139.00069824 127.72248535 -137.5 127 C-129.65540261 123.14984426 -122.17921632 119.24959147 -115 114.25 C-113.85724609 113.49589844 -113.85724609 113.49589844 -112.69140625 112.7265625 C-106.32195547 108.43842651 -100.42476486 103.60552236 -94.5324707 98.69287109 C-93.54573364 97.87616943 -93.54573364 97.87616943 -92.5390625 97.04296875 C-91.95334473 96.5533667 -91.36762695 96.06376465 -90.76416016 95.55932617 C-88.92534499 94.19459247 -87.07369749 93.21227988 -85 92.25 C-85 91.59 -85 90.93 -85 90.25 C-83.53344727 88.80249023 -83.53344727 88.80249023 -81.50390625 87.12109375 C-77.10434314 83.37812404 -73.00851552 79.40720718 -68.9375 75.3125 C-68.26912109 74.64798828 -67.60074219 73.98347656 -66.91210938 73.29882812 C-49.35325361 55.70584436 -35.87378208 35.69588922 -23.76171875 14.09765625 C-22.8426663 12.48090557 -21.92214253 10.8649902 -21 9.25 C-20.34378662 8.07606689 -20.34378662 8.07606689 -19.67431641 6.87841797 C-19.2519873 6.15412598 -18.8296582 5.42983398 -18.39453125 4.68359375 C-17.84502808 3.7234436 -17.84502808 3.7234436 -17.28442383 2.74389648 C-13.58788325 -1.55550131 -5.12827945 0.02393596 0 0 Z " fill="#030303" transform="translate(299,385.75)"/>
<path d="M0 0 C1.56427734 -0.13921875 1.56427734 -0.13921875 3.16015625 -0.28125 C6.95435291 -0.3204159 8.74454289 -0.01528297 12 2 C16.15016003 7.52643783 18.81250723 14.05689496 21.70166016 20.296875 C32.16362336 42.07853287 49.11206459 63.14796961 66.70703125 79.58203125 C68 81 68 81 68 83 C68.57621094 83.24621094 69.15242187 83.49242187 69.74609375 83.74609375 C72.3624153 85.20162099 74.00891836 86.88608731 76.0625 89.0625 C81.0509263 94.15671675 86.41017481 98.58501089 92 103 C92.95261719 103.78117187 93.90523437 104.56234375 94.88671875 105.3671875 C110.42990351 117.82561729 127.91229515 126.82817458 146 135 C143.66768716 137.33231284 141.24612615 138.25206743 138.23681641 139.51147461 C123.4585436 145.69684019 110.54740406 154.08860519 98 164 C97.10023438 164.70640625 96.20046875 165.4128125 95.2734375 166.140625 C87.26838599 172.55389393 79.30524466 179.38686168 72.25 186.8515625 C71 188 71 188 69 188 C68.773125 188.5775 68.54625 189.155 68.3125 189.75 C66.65273655 192.59530878 64.57933333 193.93653334 62 196 C59.55396311 198.57083469 57.28700834 201.28781398 55 204 C53.90365234 205.26457031 53.90365234 205.26457031 52.78515625 206.5546875 C38.7126056 223.02208065 26.7290376 241.00762198 16.76953125 260.25 C16.45161621 260.86319092 16.13370117 261.47638184 15.80615234 262.1081543 C15.0081216 263.67393638 14.23521762 265.2524583 13.46484375 266.83203125 C12 269 12 269 10.29858398 269.62060547 C-7.15323734 272.50112914 -27.40511037 271.62719164 -42.53515625 261.859375 C-47.32817249 258.24372408 -51.67573981 254.15983965 -56 250 C-52.53997579 242.11883375 -44.41916131 236.48412799 -38 231 C-36.92285532 230.07068532 -35.84606091 229.14096456 -34.76953125 228.2109375 C-28.48495718 222.79110134 -22.15281548 217.44378267 -15.7109375 212.2109375 C-12.78939961 209.82824234 -9.89310839 207.4171214 -7 205 C-1.36353326 200.29571814 4.30812205 195.63701254 10 191 C10.8974292 190.26692627 10.8974292 190.26692627 11.81298828 189.51904297 C19.45773246 183.27439282 27.13693024 177.08609822 34.92553711 171.02172852 C39.37479151 167.5380274 43.66665034 163.89463161 47.94799805 160.20800781 C52.95947852 155.94052011 58.21061336 152.01717345 63.53271484 148.14672852 C70.82909448 143.12611163 70.82909448 143.12611163 74.8125 135.625 C73.03297762 127.68559244 64.18125639 123.6402636 57.85473633 119.19311523 C52.6476365 115.51771737 47.59203841 111.66410407 42.5625 107.75 C41.81758301 107.1717749 41.07266602 106.5935498 40.30517578 105.99780273 C36.33350979 102.89362986 32.46063773 99.70775575 28.65112305 96.40722656 C26.04299512 94.18435958 23.3350968 92.09624742 20.625 90 C14.48863199 85.21579775 8.46553419 80.30511565 2.47265625 75.34277344 C-1.08519361 72.39773587 -4.65139901 69.4654901 -8.25 66.5703125 C-15.17600856 60.99796097 -21.92571213 55.35957269 -28.44140625 49.30859375 C-30.96869426 47.02824685 -33.5776052 44.91980691 -36.25 42.8125 C-41.17778694 38.83594044 -45.69593371 34.523918 -50.1875 30.0625 C-50.86006836 29.39903564 -51.53263672 28.73557129 -52.22558594 28.05200195 C-52.84594727 27.42769287 -53.46630859 26.80338379 -54.10546875 26.16015625 C-54.66387451 25.59949463 -55.22228027 25.03883301 -55.79760742 24.46118164 C-57 23 -57 23 -57 21 C-40.81456739 6.08944735 -22.02459525 -1.01847839 0 0 Z " fill="#030303" transform="translate(738,385)"/>
<path d="M0 0 C0.66 0 1.32 0 2 0 C2.53625 0.680625 3.0725 1.36125 3.625 2.0625 C6.11875105 5.14687629 8.79799053 7.49178344 11.8046875 10.0546875 C14.08169223 12.0723892 16.19215463 14.19385619 18.3125 16.375 C22.38649338 20.50499329 26.73238523 24.13496352 31.2578125 27.7578125 C33.86087952 29.88624621 36.34008633 32.09713692 38.8125 34.375 C44.30780788 39.36995017 50.12441961 43.90990837 55.99609375 48.44628906 C58.14013596 50.10865318 60.27380656 51.78372437 62.40625 53.4609375 C71.44147299 60.55397367 80.58337216 67.42238031 90 74 C91.01835938 74.71542969 92.03671875 75.43085938 93.0859375 76.16796875 C95.38762382 77.78301755 97.69201007 79.39397936 100 81 C95.78914264 82.40361912 92.86069264 80.79370715 88.875 79.3125 C88.10599365 79.0343042 87.3369873 78.7561084 86.54467773 78.46948242 C81.94661181 76.78590986 77.47354032 74.93672304 73.03515625 72.8671875 C69.91909717 71.53942336 66.70319846 70.63779849 63.44921875 69.7109375 C61.20718836 69.0601408 59.01616024 68.33150714 56.8125 67.5625 C26.40564473 57.35525176 -5.88516921 55.86237091 -35.28515625 70.05078125 C-45.50158335 75.26739545 -55.87395291 81.87395291 -64 90 C-64.67154684 92.28341743 -64.67154684 92.28341743 -64 95 C-59.8599582 99.45306373 -54.58694786 102.77597259 -49.4375 105.9375 C-48.74422607 106.36498535 -48.05095215 106.7924707 -47.33666992 107.23291016 C-28.36789816 118.76858779 -9.91023397 124.42151345 12.375 124.3125 C13.55747314 124.30831055 14.73994629 124.30412109 15.95825195 124.29980469 C24.70064919 124.18688331 32.53858952 123.27509321 41 121 C42.36611016 120.67897411 43.73336173 120.36277682 45.1015625 120.05078125 C51.85410062 118.48432991 58.33456287 116.67488797 64.71875 113.9296875 C67.07726095 112.96851352 69.42439031 112.25270336 71.875 111.5625 C76.78792213 110.15109537 81.39455761 108.2093054 86.09375 106.2109375 C97 101.66666667 97 101.66666667 101 103 C91.35284126 110.0483323 91.35284126 110.0483323 86.609375 113.40625 C78.58770663 119.08623828 70.74926879 124.95314626 63 131 C58.54860459 134.47096942 54.09259235 137.93466088 49.60546875 141.359375 C41.60422977 147.48663489 33.86304349 153.70802692 26.52734375 160.62109375 C24.37580212 162.64626972 22.18679187 164.58561275 19.9375 166.5 C14.68505484 171.04623405 9.87325372 176.05589121 5 181 C4.00107009 182.00106895 3.00166251 183.00166528 2 184 C-1.76565039 182.49542094 -3.54295677 180.36583433 -6 177.1875 C-13.68742995 167.53705251 -22.19479738 158.63477934 -31 150 C-34.13275638 146.87867703 -37.24892321 143.74124052 -40.36328125 140.6015625 C-42.01295516 138.94264302 -43.66269658 137.28379068 -45.3125 135.625 C-46.12912109 134.8 -46.94574219 133.975 -47.78710938 133.125 C-52.09364013 128.80131176 -56.46142262 124.63382399 -61.09057617 120.65771484 C-64.31081332 117.86198409 -67.39731019 114.92473308 -70.5 112 C-75.06748045 107.71212663 -79.66407218 103.48467372 -84.4140625 99.3984375 C-86.71875826 97.36621808 -88.86147829 95.20535051 -91 93 C-88.18700694 89.13213454 -85.01473453 86.16930674 -81.40625 83.0859375 C-78.55275211 80.61228836 -75.77512627 78.06058599 -73 75.5 C-69.04526293 71.85854592 -65.05386058 68.26847967 -60.99609375 64.7421875 C-55.00869217 59.51639278 -49.13955204 54.22134168 -43.578125 48.54296875 C-42 47 -42 47 -39 44.5625 C-35.93098703 41.94105142 -33.45120705 39.15865565 -30.84375 36.09375 C-29.01897913 34.02155257 -27.10811254 32.10765659 -25.125 30.1875 C-21.16521843 26.28887336 -17.71208155 22.07393848 -14.23828125 17.7421875 C-12.12365567 15.15149439 -9.934342 12.66361159 -7.6875 10.1875 C-5.4383222 7.7013313 -3.41853461 5.2700934 -1.625 2.4375 C-1.08875 1.633125 -0.5525 0.82875 0 0 Z " fill="#040404" transform="translate(659,429)"/>
<path d="M0 0 C3.8013003 3.69743963 7.27079381 7.57245818 10.6875 11.625 C15.28106691 17.03145543 19.97114328 22.32113161 24.765625 27.55078125 C26.72562883 29.69924699 28.65344491 31.86883807 30.5625 34.0625 C39.21532869 44.10776414 39.21532869 44.10776414 49 53 C50.68082619 54.65238581 52.34538396 56.32136921 54 58 C62.75533751 66.90488175 62.75533751 66.90488175 72.00390625 75.2890625 C74.39533178 77.33885581 76.72749602 79.44870693 79.0625 81.5625 C82.98932963 85.10696445 86.96518552 88.57917903 91 92 C89.48947977 95.67670584 87.3511385 97.71874462 84.375 100.3125 C83.47265625 101.10527344 82.5703125 101.89804687 81.640625 102.71484375 C80.33351563 103.84599609 80.33351563 103.84599609 79 105 C72.81955255 110.37794749 66.73360256 115.84796986 60.71875 121.41064453 C59.553248 122.48840278 58.38654138 123.56485952 57.21875 124.64013672 C35.40927404 144.47561731 35.40927404 144.47561731 15.95703125 166.53515625 C12.86020756 170.43554697 9.45425229 174.03986608 6.06640625 177.6875 C3.88630363 180.01802691 3.88630363 180.01802691 2 183 C-2.08383144 182.47905567 -3.81184186 180.43645218 -6.5625 177.5 C-10.91320607 173.00853579 -15.46775383 169.04962176 -20.34765625 165.1484375 C-22.79945033 163.16244819 -25.15747755 161.11286339 -27.5 159 C-32.5227516 154.48758145 -37.74456366 150.23728913 -43 146 C-43.80179687 145.35289062 -44.60359375 144.70578125 -45.4296875 144.0390625 C-47.94638683 142.01745157 -50.47213859 140.00763486 -53 138 C-54.01320313 137.19046875 -55.02640625 136.3809375 -56.0703125 135.546875 C-65.15775395 128.31963255 -74.47236136 121.41814775 -83.84863281 114.57128906 C-85.76327489 113.17289637 -87.67518827 111.77089127 -89.5859375 110.3671875 C-94.12330546 106.91217114 -94.12330546 106.91217114 -99 104 C-99 103.34 -99 102.68 -99 102 C-93.55345118 103.73762283 -88.22109153 105.6641783 -82.89453125 107.7421875 C-68.22288805 113.4548994 -53.8745322 118.71587666 -38.32348633 121.56103516 C-36.74955734 121.85838982 -35.18131604 122.18726692 -33.61987305 122.54443359 C-26.90981024 124.05253881 -20.42963275 124.38522884 -13.5625 124.375 C-12.42594971 124.37338867 -11.28939941 124.37177734 -10.1184082 124.37011719 C-0.73580025 124.23544808 7.9767777 122.99960782 17.01757812 120.53808594 C18.80896659 120.05185193 20.61495932 119.62022646 22.421875 119.1953125 C37.04192774 115.37664201 54.22389605 105.77610395 65 95 C65.53864094 92.65758832 65.53864094 92.65758832 65 90 C54.51565659 79.15098377 38.31112645 70.33529238 24 66 C22.54155011 65.47949315 21.08321419 64.95866681 19.625 64.4375 C9.04626394 61.02845106 -1.07101969 59.41548281 -12.1875 59.4375 C-13.48324951 59.43991699 -14.77899902 59.44233398 -16.11401367 59.44482422 C-38.48657657 59.74629011 -59.62288777 67.08353196 -80.00390625 75.76171875 C-83.51702163 77.2136843 -87.05605752 78.56728543 -90.625 79.875 C-91.79289062 80.30554688 -92.96078125 80.73609375 -94.1640625 81.1796875 C-97 82 -97 82 -99 81 C-92.74691282 75.77498325 -86.42867292 70.77487021 -79.80859375 66.0234375 C-74.81487827 62.42573984 -69.90730146 58.71429835 -65 55 C-64.44989258 54.58427734 -63.89978516 54.16855469 -63.33300781 53.74023438 C-57.19282109 49.09189084 -51.13667437 44.42894363 -45.48828125 39.1796875 C-44 38 -44 38 -42 38 C-42 37.34 -42 36.68 -42 36 C-40.5944882 35.03331315 -39.18283028 34.07443296 -37.74267578 33.16015625 C-34.77257584 31.1828636 -32.1283045 28.83623794 -29.4375 26.5 C-28.83397705 25.97954102 -28.2304541 25.45908203 -27.60864258 24.92285156 C-22.30233635 20.31949094 -17.13913027 15.56947752 -12 10.78125 C-8.06296046 7.11677474 -4.04047435 3.54977074 0 0 Z " fill="#040404" transform="translate(372,429)"/>
<path d="M0 0 C0.66 0 1.32 0 2 0 C2.28085449 0.61294922 2.56170898 1.22589844 2.85107422 1.85742188 C8.81845455 14.80409531 15.0844015 27.14187022 23 39 C23.67675781 40.04027344 24.35351562 41.08054688 25.05078125 42.15234375 C31.38000442 51.80472618 38.16019863 61.14309249 45 70.4375 C49.88339822 77.15094926 54.48829799 84.03296126 59 91 C59.4424707 91.6791748 59.88494141 92.35834961 60.34082031 93.05810547 C71.85213405 110.85623979 81.0177961 129.6504947 87 150 C87.41620605 151.37623535 87.41620605 151.37623535 87.84082031 152.78027344 C88.71826118 155.68347084 89.58135858 158.59045495 90.4375 161.5 C90.70925049 162.41539551 90.98100098 163.33079102 91.26098633 164.27392578 C91.50357178 165.12196777 91.74615723 165.97000977 91.99609375 166.84375 C92.21450928 167.59849609 92.4329248 168.35324219 92.65795898 169.13085938 C93 171 93 171 92 173 C91.30608154 172.42668945 91.30608154 172.42668945 90.59814453 171.84179688 C88.44107928 170.06040933 86.2831774 168.28004002 84.125 166.5 C83.34503662 165.85651611 82.56507324 165.21303223 81.76147461 164.55004883 C77.7240245 161.2244241 73.67091309 157.9254307 69.5625 154.6875 C65.21105004 151.23918116 61.1113146 147.54888672 57.03125 143.78515625 C55.1231855 141.95554062 55.1231855 141.95554062 53 141 C53 140.34 53 139.68 53 139 C52.41226807 138.73606445 51.82453613 138.47212891 51.21899414 138.20019531 C33.5926791 128.66658713 20.80642989 105.67619655 11 89 C9.79348524 86.97808038 8.5855486 84.95700709 7.375 82.9375 C6.92898438 82.18339844 6.48296875 81.42929688 6.0234375 80.65234375 C5.10494609 79.02867886 5.10494609 79.02867886 4 78 C1.21555423 77.24616662 1.21555423 77.24616662 -2 78 C-6.32769724 81.86109916 -8.85728346 87.50209865 -11.625 92.5 C-14.73256868 98.1086516 -18.22248357 103.30308253 -22.0625 108.4375 C-22.78590576 109.41203125 -22.78590576 109.41203125 -23.52392578 110.40625 C-26.54557061 114.37400472 -29.79082892 117.92868589 -33.38452148 121.38671875 C-35.03541717 123.035369 -36.51858226 124.7612571 -38 126.5625 C-46.11841163 135.9608414 -55.7658556 144.17727547 -65.4453125 151.91796875 C-69.77636118 155.4477072 -73.86940792 159.23992614 -78 163 C-86.27176781 170.48812665 -86.27176781 170.48812665 -91 173 C-90.40175768 167.86841029 -89.24649948 163.15993869 -87.625 158.25 C-86.12489197 153.60650321 -84.69706176 148.98320973 -83.5 144.25 C-81.88752549 138.24553691 -79.53908346 132.66665241 -77 127 C-76.72027344 126.36819824 -76.44054687 125.73639648 -76.15234375 125.08544922 C-65.77338882 101.77211485 -51.41978601 81.19185848 -36.29101562 60.74560547 C-22.36407029 41.91473196 -8.52353782 21.9472667 0 0 Z " fill="#040404" transform="translate(515,149)"/>
<path d="M0 0 C5.58249684 4.10137129 10.96268081 8.40149194 16.30078125 12.81640625 C19.33183474 15.26844518 22.44857874 17.56603435 25.63671875 19.80859375 C26.08660156 20.20175781 26.53648437 20.59492187 27 21 C27 21.66 27 22.32 27 23 C27.5465625 23.22816406 28.093125 23.45632813 28.65625 23.69140625 C31.70136278 25.39159422 33.95459919 27.55289736 36.5 29.9375 C37.56623362 30.93117486 38.63264508 31.9246589 39.69921875 32.91796875 C40.24368652 33.42763184 40.7881543 33.93729492 41.34912109 34.46240234 C43.47413918 36.44160434 45.62227637 38.39458404 47.77172852 40.34716797 C50.19318985 42.55184501 52.59652368 44.77573025 55 47 C55.63421875 47.57878906 56.2684375 48.15757812 56.921875 48.75390625 C69.29665266 60.50994503 78.33183121 75.60670147 86.90625 90.20703125 C87.87523115 91.95370176 87.87523115 91.95370176 89 93 C91.32828629 93.58610371 91.32828629 93.58610371 94 93 C97.81750672 88.90892603 100.60755302 84.52543021 103.375 79.6875 C106.86826214 73.74873832 110.5459006 68.2734445 115 63 C115.42651855 62.48614746 115.85303711 61.97229492 116.29248047 61.44287109 C124.81790663 51.17899552 133.74801905 41.4794145 143.91796875 32.80078125 C146.43153578 30.62675798 148.86776229 28.37609512 151.3125 26.125 C156.71454103 21.20462243 162.29751824 16.56635513 168 12 C168.64179199 11.48518066 169.28358398 10.97036133 169.94482422 10.43994141 C174.29140981 6.95350077 178.6437803 3.47439385 183 0 C184.38944309 2.77888618 183.60650237 4.03159327 182.7421875 6.98828125 C182.44908691 7.99793945 182.15598633 9.00759766 181.85400391 10.04785156 C181.53093262 11.12518555 181.20786133 12.20251953 180.875 13.3125 C180.38459229 14.96137207 180.38459229 14.96137207 179.88427734 16.64355469 C177.59187347 24.25185727 175.14801881 31.69762849 172 39 C171.68836914 39.73105957 171.37673828 40.46211914 171.05566406 41.21533203 C159.7330223 67.63307076 144.32785412 90.42806552 126.82421875 113.1328125 C115.88841431 127.35673546 107.09433889 142.39581669 98.97070312 158.38500977 C98.49568359 159.31756592 98.02066406 160.25012207 97.53125 161.2109375 C97.11423828 162.03899902 96.69722656 162.86706055 96.26757812 163.72021484 C95.01015436 165.98173701 93.60098012 167.97081013 92 170 C91.68361572 169.41210693 91.36723145 168.82421387 91.04125977 168.21850586 C79.61099479 147.01804152 67.51471493 127.2342526 53 108 C39.8103212 90.52162616 27.75667399 72.64352523 18 53 C17.54189941 52.08226807 17.08379883 51.16453613 16.61181641 50.21899414 C12.45453778 41.58633906 9.51432113 32.82996054 6.75 23.6875 C6.31327966 22.27254558 5.87578231 20.85783075 5.4375 19.44335938 C3.4523665 13.00299971 1.52911822 6.56671326 0 0 Z " fill="#030303" transform="translate(424,720)"/>
<path d="M0 0 C1 2 1 2 0.44604492 3.88500977 C-0.62781795 6.45006225 -1.70478078 9.01181603 -2.8125 11.5625 C-3.22121338 12.50907471 -3.62992676 13.45564941 -4.05102539 14.4309082 C-7.68507176 22.64704307 -12.0324739 30.24133071 -16.72070312 37.88769531 C-36.80225027 71.04524224 -47.941582 105.07992764 -39 144 C-33.88925218 164.44299127 -21.8464287 181.89790604 -10 199 C-13.16195845 203.39183103 -16.17889357 207.5273602 -20.375 211 C-21.06335938 211.5775 -21.75171875 212.155 -22.4609375 212.75 C-23.22277344 213.36875 -23.22277344 213.36875 -24 214 C-28.91172285 209.86968761 -33.66562304 205.58487282 -38.38598633 201.23876953 C-41.5511468 198.3253107 -44.73309019 195.43289966 -47.9375 192.5625 C-73.15779497 169.88441076 -73.15779497 169.88441076 -83.234375 158.046875 C-85.3943342 155.54285151 -87.63487993 153.12002302 -89.875 150.6875 C-93.9498805 146.21926753 -97.81864034 141.62971689 -101.6171875 136.92578125 C-104.39150223 133.51928661 -107.22049651 130.16254305 -110.0625 126.8125 C-110.55226318 126.23516113 -111.04202637 125.65782227 -111.54663086 125.06298828 C-112.69703343 123.70804681 -113.84840657 122.35392948 -115 121 C-113.35932406 115.79936682 -110.14470956 111.82331485 -106.9375 107.5 C-105.76067593 105.89399279 -104.5849012 104.28721615 -103.41015625 102.6796875 C-102.83152832 101.88916992 -102.25290039 101.09865234 -101.65673828 100.28417969 C-98.62884185 96.10955561 -95.71819288 91.85637979 -92.8046875 87.6015625 C-92.20914062 86.74304688 -91.61359375 85.88453125 -91 85 C-90.46632813 84.22398437 -89.93265625 83.44796875 -89.3828125 82.6484375 C-88.92648437 82.10445313 -88.47015625 81.56046875 -88 81 C-87.34 81 -86.68 81 -86 81 C-85.5970874 80.10921753 -85.5970874 80.10921753 -85.18603516 79.20043945 C-83.99467768 76.99012555 -82.79788102 75.55352817 -81.0234375 73.79296875 C-80.43941162 73.2100708 -79.85538574 72.62717285 -79.25366211 72.02661133 C-78.63370361 71.41970459 -78.01374512 70.81279785 -77.375 70.1875 C-76.73763916 69.55803467 -76.10027832 68.92856934 -75.44360352 68.2800293 C-71.09860562 64.01363883 -66.67452236 59.90409182 -62 56 C-61.01515625 55.16082031 -60.0303125 54.32164062 -59.015625 53.45703125 C-53.82741957 49.03770643 -48.60815105 44.66552748 -43.3125 40.375 C-38.85377884 36.74580836 -34.56202776 32.96871044 -30.3125 29.09765625 C-28.33615628 27.30492554 -26.3354327 25.55204773 -24.3125 23.8125 C-20.24448232 20.26132063 -16.27478677 16.60568282 -12.3125 12.9375 C-11.34920776 12.05251831 -11.34920776 12.05251831 -10.36645508 11.1496582 C-6.59115583 7.63739813 -3.21211498 4.03510429 0 0 Z " fill="#030303" transform="translate(508,286)"/>
<path d="M0 0 C3.43970309 2.7953783 6.59837123 5.51598584 9.4375 8.9375 C12.04914565 12.05873505 14.81774347 14.52871459 17.90625 17.15625 C19.97844743 18.98102087 21.89234341 20.89188746 23.8125 22.875 C27.64831435 26.76305307 31.77063352 30.17276167 36.0234375 33.59375 C41.43066525 37.96494723 46.70742848 42.49123455 52 47 C52.58749023 47.49967285 53.17498047 47.9993457 53.78027344 48.51416016 C60.52483892 54.25378903 67.22483333 60.02792713 73.76953125 65.99609375 C75.18132172 67.26447993 76.61419912 68.51009758 78.07421875 69.72265625 C86.71780948 76.90583676 93.3081234 86.06833305 99.74414062 95.21533203 C100.69765832 96.57035038 101.65545787 97.92235683 102.61523438 99.27294922 C104.42107641 101.82029899 106.21195641 104.37763208 108 106.9375 C108.5887793 107.76701172 109.17755859 108.59652344 109.78417969 109.45117188 C110.32977539 110.23943359 110.87537109 111.02769531 111.4375 111.83984375 C111.93121094 112.54488037 112.42492187 113.24991699 112.93359375 113.97631836 C114 116 114 116 114 120 C112.25377172 122.31944026 110.50710594 124.42232593 108.5625 126.5625 C107.44809741 127.82192534 106.33482537 129.0823519 105.22265625 130.34375 C104.67109863 130.96507812 104.11954102 131.58640625 103.55126953 132.2265625 C101.46191384 134.61514918 99.48001504 137.08292316 97.5 139.5625 C94.30288974 143.49208226 90.98580496 147.28566979 87.546875 151.00390625 C87.02845032 151.56465851 86.51002563 152.12541077 85.97589111 152.70315552 C80.58628229 158.49717143 75.03142146 164.12028257 69.42578125 169.70458984 C67.73318653 171.39175958 66.04609403 173.08430196 64.359375 174.77734375 C59.28550119 179.85395247 54.19353635 184.82154273 48.73046875 189.48339844 C45.87635333 191.98477611 43.26517342 194.7144456 40.625 197.4375 C35.3932521 202.76142376 29.98789419 207.52597522 24 212 C18.76564995 207.72706118 14.32893185 203.18419194 10 198 C11.50603399 194.69889519 13.42746561 192.00543353 15.625 189.125 C20.34427329 182.70439449 24.19831186 175.98560195 28 169 C28.53625 168.06929687 29.0725 167.13859375 29.625 166.1796875 C34.80050306 156.71822097 37.39089182 146.39953187 40 136 C40.27070312 134.92878906 40.54140625 133.85757813 40.8203125 132.75390625 C48.10469129 97.40927957 33.49569983 64.61762418 15.9375 34.9375 C9.29334461 23.6890846 2.95529263 12.82485482 0 0 Z " fill="#030303" transform="translate(524,288)"/>
<path d="M0 0 C3.31237799 1.44499711 5.52354607 3.25397802 8.0625 5.8125 C9.06990234 6.81216797 9.06990234 6.81216797 10.09765625 7.83203125 C12.07540027 10.08592844 13.53708971 12.38863677 15 15 C14.24976563 16.00675781 13.49953125 17.01351562 12.7265625 18.05078125 C1.60484556 33.22390247 -7.16333065 48.77865837 -12.3828125 66.91796875 C-12.94886775 68.82750956 -13.59569407 70.71262044 -14.25 72.59375 C-23.03373924 100.65291703 -15.81923105 130.29701822 -2.87890625 155.703125 C0.76069249 162.55806689 4.84072954 169.14558021 8.94287109 175.73071289 C13.82748436 183.59064654 18.13740341 191.59374444 22 200 C22.2985791 200.62132812 22.5971582 201.24265625 22.90478516 201.8828125 C25.11496525 206.65510425 25.11496525 206.65510425 24 210 C11 197 11 197 9.08203125 195.01171875 C4.31289522 190.12440944 -0.65356727 185.71819014 -5.98046875 181.44921875 C-9.37632995 178.69474918 -12.69065242 175.85719443 -16 173 C-20.12431287 169.44505735 -24.27209494 165.93206411 -28.5 162.5 C-34.5315742 157.60157658 -40.41939976 152.54041729 -46.29931641 147.46191406 C-47.48462472 146.44301854 -48.67479608 145.42976469 -49.86865234 144.42089844 C-50.4817627 143.90172852 -51.09487305 143.38255859 -51.7265625 142.84765625 C-52.27908691 142.38238525 -52.83161133 141.91711426 -53.40087891 141.43774414 C-56.58728865 138.57289422 -59.27040365 135.29348005 -62 132 C-62.46712402 131.43990234 -62.93424805 130.87980469 -63.41552734 130.30273438 C-69.79428314 122.63628591 -75.98395576 114.89407497 -81.6652832 106.69287109 C-83.58971732 103.921787 -85.57766245 101.28432619 -87.77734375 98.73046875 C-90 96 -90 96 -90.0625 93.9375 C-88.63484466 91.3341285 -87.00542196 89.18773305 -85 87 C-84.34 87 -83.68 87 -83 87 C-82.61521484 86.15308594 -82.61521484 86.15308594 -82.22265625 85.2890625 C-78.25505346 77.8608988 -71.79591621 71.56176908 -66.16015625 65.375 C-64.20749371 63.22813052 -62.28354101 61.06106934 -60.375 58.875 C-59.81425781 58.23433594 -59.25351562 57.59367188 -58.67578125 56.93359375 C-57.5386294 55.62149546 -56.41129886 54.3008332 -55.29296875 52.97265625 C-52.48196738 49.66671558 -49.6604595 46.61659801 -46.33984375 43.81640625 C-41.65862163 39.7698348 -37.33619022 35.41018664 -33 31 C-28.0750109 25.99096671 -23.12894856 21.10966653 -17.77539062 16.55664062 C-15.93427187 14.94237039 -14.21348038 13.24843887 -12.5 11.5 C-9.34379896 8.28562014 -6.01443548 5.32130932 -2.6015625 2.3828125 C-1.71147181 1.61429517 -0.83152881 0.83152881 0 0 Z " fill="#030303" transform="translate(483,544)"/>
<path d="M0 0 C3.37836072 1.29383162 5.71696763 3.92660464 8.27783203 6.40161133 C9.44112005 7.50269056 10.60517992 8.60295491 11.77001953 9.70239258 C12.33043945 10.23429199 12.89085937 10.76619141 13.46826172 11.31420898 C15.40122246 13.12673792 17.39079999 14.86507603 19.40283203 16.58911133 C22.46826348 19.23769541 25.31617346 22.04084462 28.15135193 24.93243408 C29.97347267 26.72318774 31.8538072 28.39133035 33.79370117 30.05297852 C37.77066801 33.51240152 41.54428753 37.13191812 45.27392578 40.85473633 C46.25704491 41.83286285 46.25704491 41.83286285 47.26002502 42.83074951 C48.63518249 44.20088372 50.00902458 45.57233931 51.3815918 46.94506836 C53.45162419 49.01291794 55.52952876 51.07262658 57.60791016 53.13208008 C64.88131931 60.37442817 71.71882909 67.66821838 78.02783203 75.77661133 C79.18092392 77.19584972 80.3369489 78.61271264 81.49658203 80.02661133 C82.50752883 81.27618262 83.51796175 82.52616986 84.52783203 83.77661133 C85.05119141 84.41727539 85.57455078 85.05793945 86.11376953 85.71801758 C88.25998222 88.38132297 89.93693361 90.50391606 91.02783203 93.77661133 C90.18261719 95.39550781 90.18261719 95.39550781 88.81689453 97.14770508 C88.31843018 97.79852051 87.81996582 98.44933594 87.30639648 99.11987305 C86.76072021 99.81097168 86.21504395 100.50207031 85.65283203 101.21411133 C84.53410402 102.66314603 83.41561637 104.11236634 82.29736328 105.56176758 C81.46132568 106.63515381 81.46132568 106.63515381 80.60839844 107.73022461 C79.22663981 109.51921145 77.8737775 111.32317356 76.53955078 113.14770508 C72.2735475 118.97462608 67.7975378 124.4313718 62.87548828 129.71801758 C60.88217572 131.84022626 60.88217572 131.84022626 59.02783203 134.77661133 C58.36783203 134.77661133 57.70783203 134.77661133 57.02783203 134.77661133 C56.69783203 135.76661133 56.36783203 136.75661133 56.02783203 137.77661133 C54.53173828 139.28442383 54.53173828 139.28442383 52.59033203 140.90161133 C49.38597476 143.61474806 46.25109047 146.3801593 43.15283203 149.21411133 C39.15011023 152.82751064 35.02350022 156.21340421 30.78955078 159.55004883 C26.87109361 162.709201 23.07194034 166.00116872 19.2644043 169.29248047 C15.80240209 172.2782878 12.29488769 175.18146298 8.71533203 178.02661133 C-2.15723776 186.85049216 -12.12421826 196.83959961 -21.97216797 206.77661133 C-23.74905395 201.44595338 -20.30282851 196.64013583 -17.97216797 191.77661133 C-13.78201815 183.7179882 -9.09024875 175.93163257 -4.40966797 168.15161133 C-4.0376123 167.52931641 -3.66555664 166.90702148 -3.28222656 166.26586914 C-1.51621665 163.31660946 0.27195517 160.39519733 2.12548828 157.49926758 C16.15462273 134.76612292 22.01636989 103.92861748 16.71923828 77.62817383 C10.98314671 53.970847 0.2593676 33.39232099 -13.97216797 13.77661133 C-12.38260513 9.96344655 -9.964561 7.40382733 -7.09716797 4.46411133 C-6.23349609 3.56047852 -5.36982422 2.6568457 -4.47998047 1.72583008 C-1.97216797 -0.22338867 -1.97216797 -0.22338867 0 0 Z " fill="#030303" transform="translate(547.97216796875,545.223388671875)"/>
<path d="M0 0 C0.66 0 1.32 0 2 0 C14.814612 18.1568513 22.43879521 40.51908238 22.3125 62.6875 C22.30404053 64.25842407 22.30404053 64.25842407 22.29541016 65.86108398 C21.95308283 87.92086004 14.13260753 106.80108871 2 125 C1.34 125 0.68 125 0 125 C-1.52252262 122.7984323 -2.90184222 120.61864021 -4.25 118.3125 C-4.65114014 117.62986084 -5.05228027 116.94722168 -5.46557617 116.24389648 C-12.05041178 104.87320923 -16.31119056 93.80976397 -19 81 C-19.1959375 80.071875 -19.391875 79.14375 -19.59375 78.1875 C-23.15269358 50.26348112 -15.22820626 24.81054465 -1 1 C-0.67 0.67 -0.34 0.34 0 0 Z " fill="#040404" transform="translate(515,337)"/>
<path d="M0 0 C0.66 0 1.32 0 2 0 C3.296875 1.80078125 3.296875 1.80078125 4.75 4.3125 C5.27722656 5.22257813 5.80445313 6.13265625 6.34765625 7.0703125 C6.89292969 8.03710938 7.43820312 9.00390625 8 10 C8.53496094 10.94617188 9.06992187 11.89234375 9.62109375 12.8671875 C13.91385944 20.59630678 17.21714037 27.9862116 19.125 36.625 C19.37830078 37.73101563 19.37830078 37.73101563 19.63671875 38.859375 C19.96152385 40.28647143 20.28012943 41.71499646 20.59179688 43.14501953 C20.90551914 44.57065455 21.24752222 45.99008887 21.6015625 47.40625 C25.76243513 74.49271496 15.89377283 100.2618116 2 123 C-1.68484282 121.77171906 -1.85794961 120.94557132 -3.59375 117.58984375 C-4.30337891 116.22762695 -4.30337891 116.22762695 -5.02734375 114.83789062 C-5.51332031 113.88076172 -5.99929688 112.92363281 -6.5 111.9375 C-6.98597656 111.00744141 -7.47195313 110.07738281 -7.97265625 109.11914062 C-12.06209539 101.19097727 -15.05216185 93.47696346 -17.125 84.8125 C-17.29386719 84.12736328 -17.46273438 83.44222656 -17.63671875 82.73632812 C-24.86531692 53.16737736 -16.39792186 26.95037075 -1.19140625 1.51953125 C-0.79824219 1.01808594 -0.40507813 0.51664063 0 0 Z " fill="#030303" transform="translate(515,583)"/>
<path d="M0 0 C1.56234566 3.12469132 0.24036894 5.16621155 -0.8125 8.4375 C-7.25759079 27.5625302 -18.66450963 45.92852864 -32 61 C-35.64309401 59.29893327 -37.90149306 57.23235323 -40.75 54.375 C-53.97546352 42.17230566 -71.47093086 37.18037521 -89 35 C-89 34.34 -89 33.68 -89 33 C-88.030625 32.81824219 -87.06125 32.63648438 -86.0625 32.44921875 C-85.42320557 32.32933594 -84.78391113 32.20945312 -84.12524414 32.0859375 C-82.68695236 31.81628877 -81.2486379 31.54676097 -79.81030273 31.27734375 C-76.19722853 30.6004065 -72.58444847 29.92202811 -68.97265625 29.23828125 C-67.68230469 28.99464844 -66.39195312 28.75101562 -65.0625 28.5 C-64.40999268 28.3757666 -63.75748535 28.2515332 -63.08520508 28.12353516 C-59.59694124 27.46498638 -56.10674499 26.84724997 -52.6015625 26.28515625 C-31.46733097 22.86573222 -15.59376176 14.41642073 0 0 Z " fill="#070707" transform="translate(405,321)"/>
<path d="M0 0 C0.46148438 0.35191406 0.92296875 0.70382812 1.3984375 1.06640625 C2.80085104 2.12791689 4.20901633 3.18184778 5.62109375 4.23046875 C7.14519514 5.36415993 8.65931309 6.51147435 10.16015625 7.67578125 C26.23822947 19.67228528 44.41031179 24.40694923 64 27 C66.85095131 27.38385289 69.70166625 27.76940381 72.55224609 28.15600586 C74.5300021 28.4230751 76.50818478 28.687007 78.48681641 28.94750977 C79.39995605 29.06924561 80.3130957 29.19098145 81.25390625 29.31640625 C82.07189697 29.42412354 82.8898877 29.53184082 83.73266602 29.64282227 C85.8664785 29.97896609 87.91490043 30.44024774 90 31 C90 31.66 90 32.32 90 33 C89.05640625 33.09796875 88.1128125 33.1959375 87.140625 33.296875 C65.95881524 35.76383276 48.75501148 44.46840897 34 60 C30.49811385 58.5673025 28.95077723 56.93437827 26.86328125 53.80859375 C26.29037354 52.95499268 25.71746582 52.1013916 25.12719727 51.22192383 C24.52834717 50.30306396 23.92949707 49.3842041 23.3125 48.4375 C22.69109131 47.49092529 22.06968262 46.54435059 21.42944336 45.5690918 C0 12.50088449 0 12.50088449 0 0 Z " fill="#050505" transform="translate(627,323)"/>
<path d="M0 0 C0.66 0 1.32 0 2 0 C3.94903962 2.31391443 5.76855224 4.6317841 7.5625 7.0625 C8.0997168 7.78767822 8.63693359 8.51285645 9.19042969 9.26000977 C19.56522981 23.46595633 28.48767103 39.23185091 34 56 C33.67 56.99 33.34 57.98 33 59 C32.16339844 58.29875 31.32679688 57.5975 30.46484375 56.875 C12.53333089 42.13455601 -5.63015923 35.49027482 -28.46337891 32.3515625 C-32.06577006 31.85228981 -35.66214433 31.31480026 -39.25878906 30.77587891 C-41.00633224 30.51435267 -42.75436358 30.25606193 -44.50292969 30.00146484 C-45.29473633 29.88496582 -46.08654297 29.7684668 -46.90234375 29.6484375 C-47.59835693 29.54708496 -48.29437012 29.44573242 -49.01147461 29.34130859 C-51.0405308 28.99304333 -53.00984166 28.52435643 -55 28 C-55 27.34 -55 26.68 -55 26 C-54.35675781 25.89042969 -53.71351563 25.78085937 -53.05078125 25.66796875 C-32.91411508 22.13471634 -16.64485061 16.98248405 -2 2 C-1.34 1.34 -0.68 0.68 0 0 Z " fill="#080808" transform="translate(371,660)"/>
<path d="M0 0 C0.99 0 1.98 0 3 0 C3.53625 0.680625 4.0725 1.36125 4.625 2.0625 C10.5229992 9.35739375 18.69320349 13.90038676 27 18 C27.72058594 18.36996094 28.44117188 18.73992188 29.18359375 19.12109375 C38.15924733 23.23293505 48.33986275 24.34153868 58 26 C55.35857034 28.64142966 53.55199751 28.5846382 49.875 29.1484375 C48.61961426 29.34687256 47.36422852 29.54530762 46.07080078 29.74975586 C45.07358002 29.90249466 45.07358002 29.90249466 44.05621338 30.05831909 C40.61461436 30.58836559 37.17852908 31.15186842 33.7421875 31.71484375 C33.06550018 31.82540604 32.38881287 31.93596832 31.69161987 32.04988098 C10.56223935 35.52549249 -8.36305345 40.7995191 -25.1875 54.6796875 C-27 56 -27 56 -29 56 C-29.66 57.32 -30.32 58.64 -31 60 C-32 58 -32 58 -31.52197266 56.20678711 C-31.2388623 55.4875708 -30.95575195 54.76835449 -30.6640625 54.02734375 C-30.34671143 53.21894043 -30.02936035 52.41053711 -29.70239258 51.57763672 C-29.34685303 50.7063916 -28.99131348 49.83514648 -28.625 48.9375 C-28.25850342 48.03789551 -27.89200684 47.13829102 -27.5144043 46.21142578 C-21.19151837 30.99626909 -13.21576161 17.85651078 -3.27758789 4.72314453 C-2.13625592 3.18377494 -1.06298526 1.59447789 0 0 Z " fill="#060606" transform="translate(659,660)"/>
<path d="M0 0 C1.18529297 -0.00773437 2.37058594 -0.01546875 3.59179688 -0.0234375 C14.29198521 0.0000407 24.32216368 0.99903912 34.1875 5.3125 C35.15429688 5.7156543 35.15429688 5.7156543 36.140625 6.12695312 C38.4801185 7.10826787 40.79297831 8.11523916 43.0625 9.25 C43.0625 9.91 43.0625 10.57 43.0625 11.25 C39.10933141 13.04622558 35.11062778 14.6796823 31.0625 16.25 C29.51949219 16.85521484 29.51949219 16.85521484 27.9453125 17.47265625 C4.26263307 25.2461475 -22.48650211 20.47521057 -44.9375 11.25 C-44.9375 10.59 -44.9375 9.93 -44.9375 9.25 C-41.44044905 6.9186327 -37.92713993 5.90287318 -33.9375 4.75 C-33.23238281 4.53730469 -32.52726562 4.32460938 -31.80078125 4.10546875 C-21.16176189 0.99207529 -11.07933481 -0.07206071 0 0 Z " fill="#060606" transform="translate(356.9375,510.75)"/>
<path d="M0 0 C0.66019135 0.00465271 1.32038269 0.00930542 2.00057983 0.01409912 C18.34919516 0.14910742 33.19660538 2.88740256 48.25 9.375 C48.745 10.365 48.745 10.365 49.25 11.375 C46.54488847 12.32270914 43.83639547 13.25806703 41.125 14.1875 C40.38378906 14.44853516 39.64257812 14.70957031 38.87890625 14.97851562 C26.79898376 19.08974975 15.12836271 20.91523702 2.375 20.8125 C1.06233154 20.80565186 -0.25033691 20.79880371 -1.6027832 20.79174805 C-15.64258149 20.55947677 -27.19272108 17.8664747 -39.75 11.375 C-39.75 10.715 -39.75 10.055 -39.75 9.375 C-37.84036346 8.42326179 -35.92174759 7.48954021 -34 6.5625 C-32.93265625 6.04042969 -31.8653125 5.51835938 -30.765625 4.98046875 C-20.71761888 0.68545932 -10.82633268 -0.11974966 0 0 Z " fill="#060607" transform="translate(670.75,510.625)"/>
<path d="M0 0 C-0.64324219 0.52207031 -1.28648437 1.04414062 -1.94921875 1.58203125 C-12.86237086 10.47134631 -23.58757015 19.52639579 -34 29 C-35.60367447 30.43804907 -37.20785052 31.87553897 -38.8125 33.3125 C-49.7671855 43.19200341 -60.42092224 53.28040076 -70.8125 63.75 C-72.00561973 64.94815536 -73.1989782 66.14607302 -74.39257812 67.34375 C-77.26446127 70.22645104 -80.1331544 73.11228944 -83 76 C-84.14862413 72.5541276 -83.88837513 72.06534686 -82.5234375 68.8671875 C-82.18183594 68.06023437 -81.84023438 67.25328125 -81.48828125 66.421875 C-81.12089844 65.58140625 -80.75351562 64.7409375 -80.375 63.875 C-80.03082031 63.05773437 -79.68664062 62.24046875 -79.33203125 61.3984375 C-68.64022378 36.4640378 -49.46088714 15.32198127 -24 5 C-3.8252588 -1.9126294 -3.8252588 -1.9126294 0 0 Z " fill="#090909" transform="translate(688,713)"/>
<path d="M0 0 C22.26298299 1.36303977 40.91195021 14.6662165 56 30 C56.70640625 30.69738281 57.4128125 31.39476562 58.140625 32.11328125 C67.19310915 41.55133417 72.80551065 52.98509595 78.125 64.8125 C78.43260254 65.48812988 78.74020508 66.16375977 79.05712891 66.85986328 C81.12170551 71.63488346 81.12170551 71.63488346 80 75 C79.2265625 74.21496094 78.453125 73.42992187 77.65625 72.62109375 C76.60430616 71.55975756 75.5522148 70.49856757 74.5 69.4375 C73.9946875 68.92380859 73.489375 68.41011719 72.96875 67.88085938 C70.11388767 65.00815416 67.19559213 62.2706743 64.125 59.62890625 C58.92579005 55.13183841 54.16918195 50.21780093 49.35546875 45.31640625 C45.34193296 41.2588463 41.24618646 37.38821967 36.91992188 33.66601562 C33.8734264 31.02241375 30.94206633 28.25857725 28 25.5 C21.99784204 19.90432481 15.91841598 14.44393863 9.62890625 9.171875 C9.03150635 8.66994629 8.43410645 8.16801758 7.81860352 7.65087891 C6.61974529 6.64499034 5.41845967 5.64198674 4.21459961 4.64208984 C2.79139947 3.44960502 1.39312836 2.227482 0 1 C0 0.67 0 0.34 0 0 Z " fill="#080808" transform="translate(347,713)"/>
<path d="M0 0 C0.495 0.99 0.495 0.99 1 2 C-0.36826535 5.93078471 -2.24591817 9.6655477 -4 13.4375 C-4.70576172 15.00274414 -4.70576172 15.00274414 -5.42578125 16.59960938 C-9.99799711 26.52661712 -15.25423551 35.78590976 -22.875 43.6875 C-23.3918335 44.23293457 -23.90866699 44.77836914 -24.44116211 45.34033203 C-37.93301175 59.42694999 -56.10709513 72.21777554 -76 75 C-78.296875 74.5625 -78.296875 74.5625 -80 74 C-67.10799898 62.03166369 -67.10799898 62.03166369 -60.94921875 56.69921875 C-57.78051989 53.93692615 -54.66666837 51.11414295 -51.546875 48.296875 C-49.9363536 46.84444159 -48.32222143 45.39599324 -46.703125 43.953125 C-36.04801313 34.44218622 -25.46370249 24.77951825 -15.6015625 14.44140625 C-14 13 -14 13 -12 13 C-11.5978125 12.0409375 -11.5978125 12.0409375 -11.1875 11.0625 C-10 9 -10 9 -7 8 C-7 7.34 -7 6.68 -7 6 C-5.46875 4.4921875 -5.46875 4.4921875 -3.5 2.875 C-2.8503125 2.33617187 -2.200625 1.79734375 -1.53125 1.2421875 C-0.77328125 0.62730469 -0.77328125 0.62730469 0 0 Z " fill="#070707" transform="translate(427,254)"/>
<path d="M0 0 C5.13542745 4.29286075 9.91946997 8.79790983 14.62109375 13.55859375 C15.67648094 14.61966087 15.67648094 14.61966087 16.75318909 15.7021637 C19.73326658 18.69843199 22.70732249 21.70065058 25.68188477 24.70239258 C27.86784232 26.90656844 30.05689934 29.10763343 32.24609375 31.30859375 C32.9046788 31.97547714 33.56326385 32.64236053 34.24180603 33.32945251 C38.65619131 37.76671153 43.25294206 41.92269319 48 46 C49.60818057 47.4330081 51.21297044 48.86984199 52.8125 50.3125 C53.65554688 51.07175781 54.49859375 51.83101563 55.3671875 52.61328125 C57.14939444 54.22890208 58.92527663 55.85152269 60.6953125 57.48046875 C66.27396337 62.60615225 71.94845802 67.4803633 77.8828125 72.1875 C80 74 80 74 81 76 C63.38959407 73.86608602 47.21054435 65.63416007 34 54 C33.18144531 53.32453125 32.36289062 52.6490625 31.51953125 51.953125 C24.57077164 46.04937265 19.24342427 39.39925725 14 32 C13.44570313 31.22398437 12.89140625 30.44796875 12.3203125 29.6484375 C7.43974287 22.18248504 0 9.09052793 0 0 Z " fill="#070707" transform="translate(604,254)"/>
<path d="M0 0 C3.58402695 1.53248049 6.02850134 3.6674601 8.8125 6.375 C9.62332031 7.14585937 10.43414063 7.91671875 11.26953125 8.7109375 C13 11 13 11 13.078125 12.9609375 C11.5089271 15.92876832 9.35033208 17.92879445 6.9375 20.25 C6.01839844 21.14203125 5.09929688 22.0340625 4.15234375 22.953125 C3.44207031 23.62859375 2.73179687 24.3040625 2 25 C-2.52698636 23.60089587 -4.75155982 21.4384826 -7.8125 17.875 C-8.60269531 16.96492187 -9.39289063 16.05484375 -10.20703125 15.1171875 C-10.79871094 14.41851563 -11.39039063 13.71984375 -12 13 C-8.19524578 8.43969176 -4.25030379 4.14910608 0 0 Z " fill="#050505" transform="translate(515,509)"/>
<path d="M0 0 C0 4.62492822 -2.87613661 6.78842554 -6 10 C-7.78174958 11.6006261 -9.60628614 13.14302231 -11.43359375 14.69140625 C-17.54241758 20.18655828 -23.2281506 26.15487516 -29 32 C-29.66 31.67 -30.32 31.34 -31 31 C-20.77 20.77 -10.54 10.54 0 0 Z " fill="#090909" transform="translate(805,634)"/>
<path d="M0 0 C0 3.61770393 -0.63458538 4.08448793 -3 6.6875 C-3.94552734 7.72970703 -3.94552734 7.72970703 -4.91015625 8.79296875 C-8.20151324 12.26888781 -11.57548544 15.65553903 -15 19 C-15.99 18.67 -16.98 18.34 -18 18 C-12.06 12.06 -6.12 6.12 0 0 Z " fill="#E3E2E2" transform="translate(624,769)"/>
<path d="M0 0 C0.66 0.33 1.32 0.66 2 1 C1.84660156 1.96035156 1.69320313 2.92070313 1.53515625 3.91015625 C0.89288765 8.40603647 0.66031389 12.90451572 0.4375 17.4375 C0.39431641 18.26443359 0.35113281 19.09136719 0.30664062 19.94335938 C0.20161967 21.96209549 0.10041441 23.98102951 0 26 C-0.33 26 -0.66 26 -1 26 C-1.33 23.69 -1.66 21.38 -2 19 C-2.33 19 -2.66 19 -3 19 C-3.33693273 12.03672362 -2.3030887 6.56654456 0 0 Z " fill="#DCDCDC" transform="translate(495,624)"/>
<path d="M0 0 C0.33 0.66 0.66 1.32 1 2 C-4.16205691 8.27309565 -9.87372593 13.6749489 -16 19 C-16.66 18.67 -17.32 18.34 -18 18 C-12.06 12.06 -6.12 6.12 0 0 Z " fill="#DDDCDD" transform="translate(326,307)"/>
<path d="M0 0 C0.98608749 0.00212242 0.98608749 0.00212242 1.99209595 0.00428772 C4.07029981 0.00983863 6.14839177 0.0223816 8.2265625 0.03515625 C9.64452968 0.04017761 11.06249857 0.0447394 12.48046875 0.04882812 C15.93753572 0.05979188 19.39453817 0.07702204 22.8515625 0.09765625 C22.8515625 0.42765625 22.8515625 0.75765625 22.8515625 1.09765625 C22.01383301 1.1227124 21.17610352 1.14776855 20.31298828 1.17358398 C17.20803994 1.26865982 14.10326069 1.3678965 10.99853516 1.4699707 C8.99261443 1.53463876 6.98654022 1.59448731 4.98046875 1.65429688 C3.09521484 1.71713867 3.09521484 1.71713867 1.171875 1.78125 C0.00930176 1.81790771 -1.15327148 1.85456543 -2.35107422 1.89233398 C-5.1019876 1.91587284 -5.1019876 1.91587284 -7.1484375 3.09765625 C-9.15644206 2.81653561 -11.15857801 2.48697658 -13.1484375 2.09765625 C-13.1484375 1.76765625 -13.1484375 1.43765625 -13.1484375 1.09765625 C-8.70696181 0.23849529 -4.52073926 -0.0193194 0 0 Z " fill="#C3C3C3" transform="translate(351.1484375,487.90234375)"/>
<path d="M0 0 C1 3 1 3 0 6 C-0.66 5.67 -1.32 5.34 -2 5 C-2 5.66 -2 6.32 -2 7 C-3.65532623 8.01866229 -5.32260138 9.01810813 -7 10 C-7.33 10.66 -7.66 11.32 -8 12 C-8.99 11.67 -9.98 11.34 -11 11 C-7.37 7.37 -3.74 3.74 0 0 Z " fill="#DEDEDE" transform="translate(206,426)"/>
<path d="M0 0 C0.99 0.33 1.98 0.66 3 1 C-2.64524422 6.80205656 -2.64524422 6.80205656 -6 9 C-6.66 9 -7.32 9 -8 9 C-8 7 -8 7 -6.35546875 5.23828125 C-5.64003906 4.60277344 -4.92460938 3.96726562 -4.1875 3.3125 C-3.47980469 2.66925781 -2.77210938 2.02601563 -2.04296875 1.36328125 C-1.36878906 0.91339844 -0.69460938 0.46351563 0 0 Z " fill="#E4E4E4" transform="translate(815,566)"/>
<path d="M0 0 C0.33 0.66 0.66 1.32 1 2 C1.66 2 2.32 2 3 2 C4.625 4.5 4.625 4.5 6 7 C5.34 7.66 4.68 8.32 4 9 C2.02 6.69 0.04 4.38 -2 2 C-1.34 2 -0.68 2 0 2 C0 1.34 0 0.68 0 0 Z " fill="#CACACC" transform="translate(189,592)"/>
<path d="M0 0 C0.66 0.33 1.32 0.66 2 1 C0.84279329 4.47162014 0.0574321 5.13156927 -3 7 C-5.75 7.6875 -5.75 7.6875 -8 8 C-5.33333333 5.33333333 -2.66666667 2.66666667 0 0 Z " fill="#DBDBDB" transform="translate(269,476)"/>
<path d="M0 0 C0.66 0.33 1.32 0.66 2 1 C-0.31 3.64 -2.62 6.28 -5 9 C-6.32 8.67 -7.64 8.34 -9 8 C-6.03 5.36 -3.06 2.72 0 0 Z " fill="#DEDEDE" transform="translate(321,434)"/>
<path d="M0 0 C0.33 0.66 0.66 1.32 1 2 C-1.41776316 7.10416667 -1.41776316 7.10416667 -3 9 C-5.14453125 9.71484375 -5.14453125 9.71484375 -7 10 C-6.02223933 8.51990357 -5.0427506 7.04094856 -4.0625 5.5625 C-3.51722656 4.73878906 -2.97195313 3.91507813 -2.41015625 3.06640625 C-1 1 -1 1 0 0 Z " fill="#DADADA" transform="translate(786,596)"/>
<path d="M0 0 C0.99 0.33 1.98 0.66 3 1 C-0.96 4.465 -0.96 4.465 -5 8 C-5.66 7.67 -6.32 7.34 -7 7 C-4.69 4.69 -2.38 2.38 0 0 Z " fill="#E1DEDF" transform="translate(594,456)"/>
<path d="M0 0 C0.66 0.66 1.32 1.32 2 2 C0.02 3.98 -1.96 5.96 -4 8 C-4.99 7.67 -5.98 7.34 -7 7 C-4.69 4.69 -2.38 2.38 0 0 Z " fill="#E3E2E2" transform="translate(605,445)"/>
<path d="M0 0 C0.99 0.66 1.98 1.32 3 2 C-0.465 4.97 -0.465 4.97 -4 8 C-4.66 7.67 -5.32 7.34 -6 7 C-4.02 4.69 -2.04 2.38 0 0 Z " fill="#D3D3D3" transform="translate(351,406)"/>
<path d="M0 0 C0.66 0.99 1.32 1.98 2 3 C1.01 3.33 0.02 3.66 -1 4 C-2.20882096 6.00016466 -2.20882096 6.00016466 -3 8 C-3.99 8 -4.98 8 -6 8 C-4.02 5.36 -2.04 2.72 0 0 Z " fill="#D5D4D6" transform="translate(477,152)"/>
<path d="M0 0 C0.33 0.99 0.66 1.98 1 3 C0.00390625 4.82421875 0.00390625 4.82421875 -1.4375 6.6875 C-1.91058594 7.31011719 -2.38367188 7.93273437 -2.87109375 8.57421875 C-3.24363281 9.04472656 -3.61617188 9.51523437 -4 10 C-4.33 9.01 -4.66 8.02 -5 7 C-4.00390625 5.17578125 -4.00390625 5.17578125 -2.5625 3.3125 C-2.08941406 2.68988281 -1.61632812 2.06726563 -1.12890625 1.42578125 C-0.75636719 0.95527344 -0.38382812 0.48476563 0 0 Z " fill="#E5E5E5" transform="translate(407,382)"/>
<path d="M0 0 C0.33 0.66 0.66 1.32 1 2 C0.22265625 3.7265625 0.22265625 3.7265625 -0.9375 5.625 C-1.618125 6.73875 -2.29875 7.8525 -3 9 C-3.99 8.67 -4.98 8.34 -6 8 C-4.02 5.36 -2.04 2.72 0 0 Z " fill="#D8D8D8" transform="translate(493,256)"/>
<path d="M0 0 C0.99 0.33 1.98 0.66 3 1 C1.29374499 3.78388975 0.52373261 4.85384206 -2.6875 5.75 C-3.8321875 5.87375 -3.8321875 5.87375 -5 6 C-3.35 4.02 -1.7 2.04 0 0 Z " fill="#E3E3E3" transform="translate(220,412)"/>
<path d="M0 0 C0.33 0.99 0.66 1.98 1 3 C-0.32 4.32 -1.64 5.64 -3 7 C-3.99 6.67 -4.98 6.34 -6 6 C-4.02 4.02 -2.04 2.04 0 0 Z " fill="#DDDDDD" transform="translate(370,264)"/>
<path d="M0 0 C1.32 0 2.64 0 4 0 C3.67 0.99 3.34 1.98 3 3 C0.4375 4.1875 0.4375 4.1875 -2 5 C-1.34 3.35 -0.68 1.7 0 0 Z " fill="#E0E0E0" transform="translate(425,529)"/>
<path d="M0 0 C0 0.33 0 0.66 0 1 C-5.16044765 2.512545 -8.65998179 3.33500455 -14 2 C-14 1.67 -14 1.34 -14 1 C-9.23692563 0.04738513 -4.8333472 -0.08333357 0 0 Z " fill="#A2A2A2" transform="translate(352,488)"/>
<path d="M0 0 C0 3.69418201 -1.28179295 5.77836178 -3 9 C-3.66 8.67 -4.32 8.34 -5 8 C-3.8141763 4.62496331 -2.72426311 2.35277269 0 0 Z " fill="#DADADA" transform="translate(512,227)"/>
</svg>
