<svg xmlns="http://www.w3.org/2000/svg" width="700" height="300" viewBox="0 0 700 300">
  <defs>
    <radialGradient id="entityGlow" cx="50%" cy="50%" r="50%">
      <stop offset="0%" style="stop-color:#e94560;stop-opacity:0.08"/>
      <stop offset="70%" style="stop-color:#e94560;stop-opacity:0.03"/>
      <stop offset="100%" style="stop-color:#e94560;stop-opacity:0"/>
    </radialGradient>
    <marker id="arrowIn" markerWidth="7" markerHeight="5" refX="7" refY="2.5" orient="auto">
      <path d="M0,0 L7,2.5 L0,5" fill="none" stroke="#5dade2" stroke-width="1"/>
    </marker>
    <marker id="arrowOut" markerWidth="7" markerHeight="5" refX="7" refY="2.5" orient="auto">
      <path d="M0,0 L7,2.5 L0,5" fill="none" stroke="#f39c12" stroke-width="1"/>
    </marker>
    <marker id="arrowSelf" markerWidth="6" markerHeight="4" refX="6" refY="2" orient="auto">
      <path d="M0,0 L6,2 L0,4" fill="none" stroke="#2ecc71" stroke-width="1"/>
    </marker>
  </defs>

  <rect width="700" height="300" fill="#1a1a2e"/>

  <!-- Glow behind entity -->
  <ellipse cx="340" cy="145" rx="160" ry="110" fill="url(#entityGlow)"/>

  <!-- Entity boundary — organic dashed shape -->
  <path d="M230,90 C260,55 310,45 350,50 C400,45 440,60 470,90
           C495,115 500,145 495,175 C490,210 460,240 420,250
           C380,258 310,260 270,248 C230,235 205,210 195,180
           C185,150 200,115 230,90 Z"
        fill="none" stroke="#e94560" stroke-width="1.8" stroke-dasharray="8,5" stroke-opacity="0.85"/>

  <!-- Internal causal network — dense center, sparse edges -->
  <!-- Central dense cluster -->
  <circle cx="340" cy="140" r="2.5" fill="#ecf0f1" opacity="0.7"/>
  <circle cx="355" cy="130" r="2" fill="#ecf0f1" opacity="0.65"/>
  <circle cx="325" cy="128" r="2" fill="#ecf0f1" opacity="0.65"/>
  <circle cx="350" cy="150" r="2.2" fill="#ecf0f1" opacity="0.7"/>
  <circle cx="328" cy="155" r="2" fill="#ecf0f1" opacity="0.65"/>
  <circle cx="360" cy="142" r="1.8" fill="#ecf0f1" opacity="0.6"/>
  <circle cx="315" cy="142" r="2" fill="#ecf0f1" opacity="0.65"/>
  <circle cx="342" cy="118" r="1.8" fill="#ecf0f1" opacity="0.6"/>
  <circle cx="338" cy="162" r="2" fill="#ecf0f1" opacity="0.65"/>
  <circle cx="370" cy="135" r="1.5" fill="#ecf0f1" opacity="0.55"/>
  <circle cx="308" cy="132" r="1.5" fill="#ecf0f1" opacity="0.55"/>
  <circle cx="345" cy="170" r="1.8" fill="#ecf0f1" opacity="0.6"/>
  <circle cx="355" cy="160" r="1.5" fill="#ecf0f1" opacity="0.55"/>
  <circle cx="320" cy="168" r="1.5" fill="#ecf0f1" opacity="0.55"/>

  <!-- Connections — central dense -->
  <line x1="340" y1="140" x2="355" y2="130" stroke="#ecf0f1" stroke-width="0.5" opacity="0.3"/>
  <line x1="340" y1="140" x2="325" y2="128" stroke="#ecf0f1" stroke-width="0.5" opacity="0.3"/>
  <line x1="340" y1="140" x2="350" y2="150" stroke="#ecf0f1" stroke-width="0.5" opacity="0.3"/>
  <line x1="340" y1="140" x2="328" y2="155" stroke="#ecf0f1" stroke-width="0.5" opacity="0.3"/>
  <line x1="340" y1="140" x2="360" y2="142" stroke="#ecf0f1" stroke-width="0.5" opacity="0.3"/>
  <line x1="340" y1="140" x2="315" y2="142" stroke="#ecf0f1" stroke-width="0.5" opacity="0.3"/>
  <line x1="355" y1="130" x2="360" y2="142" stroke="#ecf0f1" stroke-width="0.4" opacity="0.25"/>
  <line x1="325" y1="128" x2="315" y2="142" stroke="#ecf0f1" stroke-width="0.4" opacity="0.25"/>
  <line x1="350" y1="150" x2="360" y2="142" stroke="#ecf0f1" stroke-width="0.4" opacity="0.25"/>
  <line x1="328" y1="155" x2="315" y2="142" stroke="#ecf0f1" stroke-width="0.4" opacity="0.25"/>
  <line x1="355" y1="130" x2="342" y2="118" stroke="#ecf0f1" stroke-width="0.4" opacity="0.25"/>
  <line x1="325" y1="128" x2="342" y2="118" stroke="#ecf0f1" stroke-width="0.4" opacity="0.25"/>
  <line x1="350" y1="150" x2="355" y2="160" stroke="#ecf0f1" stroke-width="0.4" opacity="0.25"/>
  <line x1="328" y1="155" x2="338" y2="162" stroke="#ecf0f1" stroke-width="0.4" opacity="0.25"/>
  <line x1="338" y1="162" x2="345" y2="170" stroke="#ecf0f1" stroke-width="0.4" opacity="0.2"/>
  <line x1="355" y1="160" x2="345" y2="170" stroke="#ecf0f1" stroke-width="0.4" opacity="0.2"/>
  <line x1="350" y1="150" x2="328" y2="155" stroke="#ecf0f1" stroke-width="0.4" opacity="0.25"/>
  <line x1="370" y1="135" x2="360" y2="142" stroke="#ecf0f1" stroke-width="0.4" opacity="0.2"/>
  <line x1="370" y1="135" x2="355" y2="130" stroke="#ecf0f1" stroke-width="0.4" opacity="0.2"/>
  <line x1="308" y1="132" x2="315" y2="142" stroke="#ecf0f1" stroke-width="0.4" opacity="0.2"/>
  <line x1="308" y1="132" x2="325" y2="128" stroke="#ecf0f1" stroke-width="0.4" opacity="0.2"/>
  <line x1="320" y1="168" x2="328" y2="155" stroke="#ecf0f1" stroke-width="0.3" opacity="0.18"/>
  <line x1="320" y1="168" x2="338" y2="162" stroke="#ecf0f1" stroke-width="0.3" opacity="0.18"/>

  <!-- Sparser outer nodes -->
  <circle cx="280" cy="110" r="1.2" fill="#ecf0f1" opacity="0.4"/>
  <circle cx="400" cy="115" r="1.2" fill="#ecf0f1" opacity="0.4"/>
  <circle cx="260" cy="155" r="1.2" fill="#ecf0f1" opacity="0.4"/>
  <circle cx="420" cy="170" r="1.2" fill="#ecf0f1" opacity="0.4"/>
  <circle cx="290" cy="195" r="1.2" fill="#ecf0f1" opacity="0.4"/>
  <circle cx="390" cy="200" r="1.2" fill="#ecf0f1" opacity="0.4"/>
  <circle cx="250" cy="130" r="1" fill="#ecf0f1" opacity="0.35"/>
  <circle cx="430" cy="140" r="1" fill="#ecf0f1" opacity="0.35"/>

  <!-- Sparse outer connections -->
  <line x1="280" y1="110" x2="308" y2="132" stroke="#ecf0f1" stroke-width="0.3" opacity="0.15"/>
  <line x1="400" y1="115" x2="370" y2="135" stroke="#ecf0f1" stroke-width="0.3" opacity="0.15"/>
  <line x1="260" y1="155" x2="308" y2="132" stroke="#ecf0f1" stroke-width="0.3" opacity="0.15"/>
  <line x1="420" y1="170" x2="370" y2="135" stroke="#ecf0f1" stroke-width="0.3" opacity="0.15"/>
  <line x1="290" y1="195" x2="320" y2="168" stroke="#ecf0f1" stroke-width="0.3" opacity="0.15"/>
  <line x1="390" y1="200" x2="345" y2="170" stroke="#ecf0f1" stroke-width="0.3" opacity="0.15"/>
  <line x1="250" y1="130" x2="280" y2="110" stroke="#ecf0f1" stroke-width="0.3" opacity="0.12"/>
  <line x1="430" y1="140" x2="400" y2="115" stroke="#ecf0f1" stroke-width="0.3" opacity="0.12"/>

  <!-- Self-coupling circular arrow (inside blob, top-right area) -->
  <path d="M395,85 A18,18 0 1,1 385,75" fill="none" stroke="#2ecc71" stroke-width="1.2" stroke-opacity="0.7" marker-end="url(#arrowSelf)"/>

  <!-- External forces — arrows pointing inward -->
  <line x1="130" y1="100" x2="195" y2="120" stroke="#5dade2" stroke-width="1.3" marker-end="url(#arrowIn)" opacity="0.75"/>
  <line x1="150" y1="200" x2="210" y2="190" stroke="#5dade2" stroke-width="1.3" marker-end="url(#arrowIn)" opacity="0.75"/>
  <line x1="340" y1="15" x2="345" y2="55" stroke="#5dade2" stroke-width="1.3" marker-end="url(#arrowIn)" opacity="0.75"/>

  <!-- Entity field contribution — arrows pointing outward -->
  <line x1="480" y1="120" x2="545" y2="100" stroke="#f39c12" stroke-width="1.3" marker-end="url(#arrowOut)" opacity="0.75"/>
  <line x1="475" y1="195" x2="540" y2="210" stroke="#f39c12" stroke-width="1.3" marker-end="url(#arrowOut)" opacity="0.75"/>
  <line x1="430" y1="240" x2="470" y2="265" stroke="#f39c12" stroke-width="1.3" marker-end="url(#arrowOut)" opacity="0.75"/>

  <!-- Labels -->
  <!-- M label inside -->
  <text x="290" y="225" fill="#ecf0f1" font-family="'Arial','Helvetica',sans-serif" font-size="11" opacity="0.8" font-style="italic">M &gt; 0</text>
  <text x="290" y="238" fill="#ecf0f1" font-family="'Arial','Helvetica',sans-serif" font-size="9" opacity="0.55">(internal causal density)</text>

  <!-- Boundary label -->
  <text x="475" y="80" fill="#e94560" font-family="'Arial','Helvetica',sans-serif" font-size="11" opacity="0.85" font-style="italic">&#x2202;E: &#x03BA;s = &#x03BA;c</text>

  <!-- External forces label -->
  <text x="70" y="85" fill="#5dade2" font-family="'Arial','Helvetica',sans-serif" font-size="11" opacity="0.8">External</text>
  <text x="70" y="98" fill="#5dade2" font-family="'Arial','Helvetica',sans-serif" font-size="11" opacity="0.8">forces F</text>

  <!-- Field contribution label -->
  <text x="550" y="96" fill="#f39c12" font-family="'Arial','Helvetica',sans-serif" font-size="11" opacity="0.8">Entity field</text>
  <text x="550" y="109" fill="#f39c12" font-family="'Arial','Helvetica',sans-serif" font-size="11" opacity="0.8" font-style="italic">&#x03A6;E</text>

  <!-- Self-coupling label -->
  <text x="400" y="72" fill="#2ecc71" font-family="'Arial','Helvetica',sans-serif" font-size="10" opacity="0.7" font-style="italic">&#x03BA;s &gt; 0</text>
</svg>